<svg width="160" height="160" viewBox="0 0 160 160" fill="none" xmlns="http://www.w3.org/2000/svg">
<mask id="mask0_77_4003" style="mask-type:alpha" maskUnits="userSpaceOnUse" x="0" y="0" width="160" height="160">
<rect width="160" height="160" fill="#D9D9D9"/>
</mask>
<g mask="url(#mask0_77_4003)">
<path d="M79.8782 130.317C107.878 130.317 130.578 107.617 130.578 79.5167C130.578 51.4167 107.778 28.7167 79.8782 28.7167C51.8782 28.7167 29.1782 51.4167 29.1782 79.5167C29.1782 107.617 51.8782 130.317 79.8782 130.317Z" fill="#3E1C00" fill-opacity="0.08" stroke="#3E1C00" stroke-opacity="0.3" stroke-width="2" stroke-miterlimit="10"/>
<path d="M114.111 119.158L46.4746 119.644C42.5706 119.661 39.3871 116.514 39.3349 112.635L38.8107 47.9243C38.7889 44.0195 41.932 40.8391 45.8098 40.7911L113.446 40.3059C117.35 40.2884 120.533 43.4357 120.586 47.3142L121.11 112.025C121.132 115.93 117.989 119.11 114.111 119.158Z" fill="white" stroke="#B7AA9F" stroke-width="2" stroke-miterlimit="10"/>
<path d="M110.302 109.497L50.8447 109.947C49.1628 109.962 47.8091 108.634 47.7923 106.952L47.3412 53.4712C47.3244 51.789 48.6503 50.4366 50.3321 50.4216L109.79 49.9716C111.472 49.9567 112.825 51.2844 112.842 52.9665L113.293 106.447C113.31 108.129 111.984 109.482 110.302 109.497Z" fill="#3E1C00" fill-opacity="0.08"/>
<path d="M92 70.551L90.2517 71.2351L85.7695 64.9229L82.8132 64.9229L82.8132 84.0771L86.3735 84.9789L85.3245 87L74.0715 87L74.0715 85.2587L77.0596 82.9577L77.0596 64.9229L74.2305 64.9229L69.7483 71.2351L68 70.551L68 62L70.2887 62.5597L89.7113 62.5597L92 62L92 70.551Z" fill="#3E1C00"/>
<path d="M95.0194 116.813C94.7093 118.131 94.2442 119.526 93.7016 120.689C92.2287 123.557 89.9031 125.805 87.0349 127.278C84.0891 128.751 80.6007 129.371 77.1123 128.596C68.8952 126.89 63.6238 118.828 65.3292 110.611C67.0347 102.394 75.0192 97.0453 83.2364 98.8282C86.1821 99.4484 88.7403 100.921 90.9109 102.937C94.5543 106.58 96.1047 111.852 95.0194 116.813Z" fill="#3E1C00" stroke="#3E1C00" stroke-width="2" stroke-miterlimit="10"/>
<path d="M80.2129 106.588C81.5783 106.588 82.531 107.694 82.5312 108.905V111.395H85.0195C86.2305 111.395 87.3369 112.347 87.3369 113.712C87.3369 115.077 86.2305 116.03 85.0195 116.03H82.5312V118.519C82.5311 119.884 81.4239 120.836 80.2129 120.836C78.8475 120.836 77.8957 119.73 77.8955 118.519V116.03H75.4062C74.7794 116.03 74.1874 115.806 73.75 115.369C73.3125 114.932 73.0889 114.339 73.0889 113.712C73.0889 112.347 74.1954 111.395 75.4062 111.395H77.8955V108.905C77.8958 107.54 79.0019 106.588 80.2129 106.588Z" fill="white" stroke="#3E1C00" stroke-width="2"/>
</g>
</svg>
