<svg width="61" height="102" viewBox="0 0 61 102" fill="none" xmlns="http://www.w3.org/2000/svg">
<path d="M1 101C1 97.1308 3.16 86.1078 6.80636 78.6861C9.00832 74.2043 13.3491 69.9876 16.5318 67.5486C20.696 64.3575 23.5273 62.9996 26.2627 62.0981C29.3464 61.0818 32.8 61.5279 35.6255 62.8193C40.2812 64.9472 39.7273 69.3151 40.18 72.5582C40.338 73.6903 40.2727 75.1434 39.9127 76.2106C39.2784 78.0909 37.5509 78.7446 36.2827 79.149C34.6376 79.6737 30.6673 80.0457 25.4909 79.7241C19.385 79.3447 16.1091 72.9212 13.2809 68.2845C11.4088 65.2153 11.0036 60.0855 10.9082 52.7831C10.8665 49.5925 12.8145 47.4057 14.1755 45.454C15.7104 43.2527 17.8982 41.558 20.0827 40.0108C21.2384 39.1922 28.2073 34.6041 38.4755 28.1911C45.2266 23.9746 47.8982 21.4126 51.8936 18.0087C54.0891 15.7257 54.6345 14.2638 54.9073 12.0855C55 10.3896 55 7.49503 55 5" stroke="#3E1C00" stroke-linecap="round" stroke-dasharray="3 3"/>
<path d="M50 6L54.499 0.901082C54.9126 0.432384 55.65 0.453728 56.0357 0.945564L60 6" stroke="#3E1C00" stroke-linecap="round"/>
</svg>
