<svg width="120" height="120" viewBox="0 0 120 120" fill="none" xmlns="http://www.w3.org/2000/svg">
<path d="M120 60C120 93.1371 93.1371 120 60 120C26.8629 120 0 93.1371 0 60C0 26.8629 26.8629 0 60 0C93.1371 0 120 26.8629 120 60Z" fill="black" fill-opacity="0.12"/>
<path d="M22.1538 106.561C25.4007 90.5815 41.1101 78.4615 60 78.4615C78.8899 78.4615 94.5993 90.5815 97.8462 106.561C87.5217 114.963 74.3491 120 60 120C45.6509 120 32.4783 114.963 22.1538 106.561Z" fill="white"/>
<path d="M78.4615 51.9231C78.4615 62.3315 70.0238 70.7692 59.6154 70.7692C49.2069 70.7692 40.7692 62.3315 40.7692 51.9231C40.7692 41.5146 49.2069 33.0769 59.6154 33.0769C70.0238 33.0769 78.4615 41.5146 78.4615 51.9231Z" fill="white"/>
</svg>
