<svg width="21" height="20" viewBox="0 0 21 20" fill="none" xmlns="http://www.w3.org/2000/svg">
<g clip-path="url(#clip0_1_389)">
<path d="M20.3333 10C20.3333 4.4772 15.8561 0 10.3333 0C4.81045 0 0.333252 4.4772 0.333252 10C0.333252 14.6896 3.56205 18.6248 7.91765 19.7056V13.056H5.85565V10H7.91765V8.6832C7.91765 5.2796 9.45805 3.702 12.7997 3.702C13.4333 3.702 14.5265 3.8264 14.9737 3.9504V6.7204C14.7377 6.6956 14.3277 6.6832 13.8185 6.6832C12.1789 6.6832 11.5453 7.3044 11.5453 8.9192V10H14.8117L14.2505 13.056H11.5453V19.9268C16.4969 19.3288 20.3337 15.1128 20.3337 10H20.3333Z" fill="#0866FF"/>
<path d="M14.25 13.0559L14.8112 9.9999H11.5448V8.9191C11.5448 7.3043 12.1784 6.6831 13.818 6.6831C14.3272 6.6831 14.7372 6.6955 14.9732 6.7203V3.9503C14.526 3.8259 13.4328 3.7019 12.7992 3.7019C9.45762 3.7019 7.91722 5.2795 7.91722 8.6831V9.9999H5.85522V13.0559H7.91722V19.7055C8.69082 19.8975 9.50002 19.9999 10.3328 19.9999C10.7428 19.9999 11.1472 19.9747 11.5444 19.9267V13.0559H14.2496H14.25Z" fill="white"/>
</g>
<defs>
<clipPath id="clip0_1_389">
<rect width="20" height="20" fill="white" transform="translate(0.333252)"/>
</clipPath>
</defs>
</svg>
