<svg width="21" height="20" viewBox="0 0 21 20" fill="none" xmlns="http://www.w3.org/2000/svg">
<g clip-path="url(#clip0_1_393)">
<path d="M10.6663 8.18164V12.0544H16.0481C15.8117 13.2998 15.1026 14.3544 14.0389 15.0635L17.2844 17.5817C19.1753 15.8363 20.2662 13.2726 20.2662 10.2272C20.2662 9.51812 20.2026 8.83623 20.0844 8.18175L10.6663 8.18164Z" fill="#4285F4"/>
<path d="M5.06218 11.9033L4.33021 12.4636L1.73926 14.4818C3.38471 17.7454 6.75719 20 10.6662 20C13.3662 20 15.6298 19.1091 17.2844 17.5818L14.0389 15.0636C13.148 15.6636 12.0116 16.0273 10.6662 16.0273C8.06626 16.0273 5.85723 14.2728 5.06627 11.9091L5.06218 11.9033Z" fill="#34A853"/>
<path d="M1.73915 5.51807C1.05737 6.86347 0.666504 8.38167 0.666504 9.99982C0.666504 11.618 1.05737 13.1362 1.73915 14.4816C1.73915 14.4906 5.06648 11.8998 5.06648 11.8998C4.86648 11.2998 4.74827 10.6634 4.74827 9.99972C4.74827 9.336 4.86648 8.69967 5.06648 8.09968L1.73915 5.51807Z" fill="#FBBC05"/>
<path d="M10.6665 3.98182C12.1392 3.98182 13.4483 4.49089 14.4937 5.47272L17.3573 2.60912C15.621 0.990971 13.3665 0 10.6665 0C6.75739 0 3.38471 2.24545 1.73926 5.51819L5.06649 8.10001C5.85735 5.73635 8.06646 3.98182 10.6665 3.98182Z" fill="#EA4335"/>
</g>
<defs>
<clipPath id="clip0_1_393">
<rect width="20" height="20" fill="white" transform="translate(0.666504)"/>
</clipPath>
</defs>
</svg>
