<svg width="20" height="20" viewBox="0 0 20 20" fill="none" xmlns="http://www.w3.org/2000/svg">
  <rect opacity="0.2" x="2.5" y="3.75" width="15" height="12.5" rx="1" stroke="#565654"/>
  <path d="M1.88 3.13C1.88 2.5 2.38 2 3 2H17C17.62 2 18.12 2.5 18.12 3.13V16.88C18.12 17.5 17.62 18 17 18H3C2.38 18 1.88 17.5 1.88 16.88V3.13ZM3 3.75V16.25H17V3.75H3ZM10 6.25C10.69 6.25 11.25 6.81 11.25 7.5C11.25 8.19 10.69 8.75 10 8.75C9.31 8.75 8.75 8.19 8.75 7.5C8.75 6.81 9.31 6.25 10 6.25ZM7.5 12.5C7.5 11.12 8.62 10 10 10C11.38 10 12.5 11.12 12.5 12.5V13.75H7.5V12.5Z" fill="#565654"/>
</svg>