<svg width="20" height="20" viewBox="0 0 20 20" fill="none" xmlns="http://www.w3.org/2000/svg">
<path opacity="0.2" d="M16.875 7.5V16.25C16.875 16.4158 16.8092 16.5747 16.6919 16.6919C16.5747 16.8092 16.4158 16.875 16.25 16.875H3.75C3.58424 16.875 3.42527 16.8092 3.30806 16.6919C3.19085 16.5747 3.125 16.4158 3.125 16.25V7.5C3.125 7.33424 3.19085 7.17527 3.30806 7.05806C3.42527 6.94085 3.58424 6.875 3.75 6.875H16.25C16.4158 6.875 16.5747 6.94085 16.6919 7.05806C16.8092 7.17527 16.875 7.33424 16.875 7.5Z" fill="#565654"/>
<path d="M16.25 6.25H13.75V4.375C13.75 3.38044 13.3549 2.42661 12.6517 1.72335C11.9484 1.02009 10.9946 0.625 10 0.625C9.00544 0.625 8.05161 1.02009 7.34835 1.72335C6.64509 2.42661 6.25 3.38044 6.25 4.375V6.25H3.75C3.41848 6.25 3.10054 6.3817 2.86612 6.61612C2.6317 6.85054 2.5 7.16848 2.5 7.5V16.25C2.5 16.5815 2.6317 16.8995 2.86612 17.1339C3.10054 17.3683 3.41848 17.5 3.75 17.5H16.25C16.5815 17.5 16.8995 17.3683 17.1339 17.1339C17.3683 16.8995 17.5 16.5815 17.5 16.25V7.5C17.5 7.16848 17.3683 6.85054 17.1339 6.61612C16.8995 6.3817 16.5815 6.25 16.25 6.25ZM7.5 4.375C7.5 3.71196 7.76339 3.07607 8.23223 2.60723C8.70107 2.13839 9.33696 1.875 10 1.875C10.663 1.875 11.2989 2.13839 11.7678 2.60723C12.2366 3.07607 12.5 3.71196 12.5 4.375V6.25H7.5V4.375ZM16.25 16.25H3.75V7.5H16.25V16.25Z" fill="#565654"/>
</svg>
