<svg width="1196" height="810" viewBox="0 0 1196 810" fill="none" xmlns="http://www.w3.org/2000/svg">
<g filter="url(#filter0_dd_84_764)">
<g clip-path="url(#clip0_84_764)">
<rect x="4" y="4" width="1188" height="802" rx="8" fill="white"/>
<mask id="path-2-inside-1_84_764" fill="white">
<path d="M4 4H1192V48H4V4Z"/>
</mask>
<path d="M1192 48V47H4V48V49H1192V48Z" fill="#E7E6E4" mask="url(#path-2-inside-1_84_764)"/>
<path d="M19.1186 20.8182H20.983L24.2244 28.733H24.3438L27.5852 20.8182H29.4496V31H27.9879V23.6321H27.8935L24.8906 30.9851H23.6776L20.6747 23.6271H20.5803V31H19.1186V20.8182ZM33.786 31.169C33.3021 31.169 32.8646 31.0795 32.4735 30.9006C32.0824 30.7183 31.7725 30.4548 31.5439 30.1101C31.3185 29.7654 31.2058 29.3428 31.2058 28.8423C31.2058 28.4115 31.2886 28.0568 31.4544 27.7784C31.6201 27.5 31.8438 27.2796 32.1255 27.1172C32.4073 26.9548 32.7221 26.8321 33.0701 26.7493C33.4181 26.6664 33.7728 26.6035 34.1341 26.5604C34.5914 26.5073 34.9627 26.4643 35.2477 26.4311C35.5327 26.3946 35.7399 26.3366 35.8691 26.2571C35.9984 26.1776 36.063 26.0483 36.063 25.8693V25.8345C36.063 25.4003 35.9404 25.0639 35.6951 24.8253C35.4532 24.5866 35.0919 24.4673 34.6113 24.4673C34.1109 24.4673 33.7164 24.5784 33.4281 24.8004C33.1431 25.0192 32.9458 25.2628 32.8365 25.5312L31.4395 25.2131C31.6052 24.7491 31.8471 24.3745 32.1653 24.0895C32.4868 23.8011 32.8564 23.5923 33.274 23.4631C33.6916 23.3305 34.1307 23.2642 34.5914 23.2642C34.8964 23.2642 35.2195 23.3007 35.5609 23.3736C35.9056 23.4432 36.2271 23.5724 36.5254 23.7614C36.827 23.9503 37.0739 24.2204 37.2662 24.5717C37.4584 24.9197 37.5545 25.3722 37.5545 25.929V31H36.1028V29.956H36.0431C35.947 30.1482 35.8029 30.3371 35.6106 30.5227C35.4184 30.7083 35.1715 30.8625 34.8699 30.9851C34.5682 31.1077 34.207 31.169 33.786 31.169ZM34.1092 29.9759C34.5202 29.9759 34.8715 29.8946 35.1632 29.7322C35.4582 29.5698 35.6819 29.3577 35.8343 29.0959C35.9901 28.8307 36.068 28.5473 36.068 28.2457V27.2614C36.015 27.3144 35.9122 27.3641 35.7598 27.4105C35.6106 27.4536 35.4399 27.4917 35.2477 27.5249C35.0555 27.5547 34.8682 27.5829 34.6859 27.6094C34.5036 27.6326 34.3511 27.6525 34.2285 27.669C33.9402 27.7055 33.6767 27.7668 33.438 27.853C33.2027 27.9392 33.0138 28.0634 32.8713 28.2259C32.7321 28.3849 32.6625 28.5971 32.6625 28.8622C32.6625 29.2301 32.7984 29.5085 33.0701 29.6974C33.3419 29.883 33.6883 29.9759 34.1092 29.9759ZM40.9016 28.4098L40.8917 26.5952H41.1502L44.1928 23.3636H45.9727L42.5025 27.0426H42.2688L40.9016 28.4098ZM39.5344 31V20.8182H41.021V31H39.5344ZM44.3569 31L41.6225 27.3707L42.6467 26.3317L46.1815 31H44.3569ZM50.3042 31.1541C49.5518 31.1541 48.9038 30.9934 48.3603 30.6719C47.82 30.3471 47.4024 29.8913 47.1074 29.3047C46.8158 28.7147 46.6699 28.0237 46.6699 27.2315C46.6699 26.4493 46.8158 25.7599 47.1074 25.1634C47.4024 24.5668 47.8134 24.1011 48.3404 23.7663C48.8707 23.4316 49.4905 23.2642 50.1998 23.2642C50.6306 23.2642 51.0482 23.3355 51.4526 23.478C51.8569 23.6205 52.2199 23.8442 52.5414 24.1491C52.8629 24.4541 53.1164 24.8501 53.302 25.3374C53.4876 25.8213 53.5804 26.4096 53.5804 27.1023V27.6293H47.5101V26.5156H52.1238C52.1238 26.1245 52.0442 25.7782 51.8851 25.4766C51.726 25.1716 51.5023 24.9313 51.214 24.7557C50.9289 24.58 50.5942 24.4922 50.2097 24.4922C49.7921 24.4922 49.4275 24.5949 49.1159 24.8004C48.8077 25.0026 48.5691 25.2678 48.4 25.5959C48.2343 25.9207 48.1515 26.2737 48.1515 26.6548V27.5249C48.1515 28.0353 48.2409 28.4695 48.4199 28.8274C48.6022 29.1854 48.8558 29.4588 49.1806 29.6477C49.5054 29.8333 49.8849 29.9261 50.3191 29.9261C50.6008 29.9261 50.8577 29.8864 51.0897 29.8068C51.3217 29.724 51.5222 29.6013 51.6912 29.4389C51.8603 29.2765 51.9895 29.076 52.079 28.8374L53.486 29.0909C53.3733 29.5052 53.1711 29.8681 52.8794 30.1797C52.5911 30.4879 52.2282 30.7282 51.7907 30.9006C51.3565 31.0696 50.861 31.1541 50.3042 31.1541ZM67.5108 24.1293H65.9597C65.9 23.7978 65.789 23.5062 65.6266 23.2543C65.4642 23.0024 65.2653 22.7886 65.03 22.6129C64.7947 22.4373 64.5312 22.3047 64.2395 22.2152C63.9512 22.1257 63.6446 22.081 63.3198 22.081C62.7331 22.081 62.2078 22.2285 61.7438 22.5234C61.2831 22.8184 60.9185 23.2509 60.65 23.821C60.3849 24.3911 60.2523 25.0871 60.2523 25.9091C60.2523 26.7377 60.3849 27.437 60.65 28.0071C60.9185 28.5772 61.2847 29.008 61.7488 29.2997C62.2128 29.5914 62.7348 29.7372 63.3148 29.7372C63.6363 29.7372 63.9412 29.6941 64.2296 29.608C64.5212 29.5185 64.7847 29.3875 65.0201 29.2152C65.2554 29.0429 65.4542 28.8324 65.6167 28.5838C65.7824 28.3319 65.8967 28.0436 65.9597 27.7188L67.5108 27.7237C67.428 28.2242 67.2672 28.6849 67.0286 29.1058C66.7933 29.5234 66.49 29.8847 66.1188 30.1896C65.7509 30.4912 65.33 30.7249 64.856 30.8906C64.382 31.0563 63.865 31.1392 63.3049 31.1392C62.4232 31.1392 61.6377 30.9304 60.9483 30.5128C60.2589 30.0919 59.7154 29.4903 59.3176 28.7081C58.9232 27.9259 58.726 26.9929 58.726 25.9091C58.726 24.822 58.9249 23.889 59.3226 23.1101C59.7203 22.3279 60.2639 21.728 60.9533 21.3104C61.6427 20.8894 62.4266 20.679 63.3049 20.679C63.8451 20.679 64.3489 20.7569 64.8162 20.9126C65.2869 21.0651 65.7095 21.2905 66.084 21.5888C66.4585 21.8838 66.7684 22.245 67.0137 22.6726C67.2589 23.0968 67.4247 23.5824 67.5108 24.1293ZM70.239 20.8182L73.0728 29.1108H73.1871L76.021 20.8182H77.6815L74.0174 31H72.2425L68.5785 20.8182H70.239Z" fill="#020202"/>
<path d="M86.6154 20.3409L83.3342 32.5312H82.0067L85.288 20.3409H86.6154ZM99.9206 20.8182V31H98.5087L93.3333 23.5327H93.2388V31H91.7026V20.8182H93.1245L98.3049 28.2955H98.3993V20.8182H99.9206ZM104.265 31.169C103.781 31.169 103.343 31.0795 102.952 30.9006C102.561 30.7183 102.251 30.4548 102.022 30.1101C101.797 29.7654 101.684 29.3428 101.684 28.8423C101.684 28.4115 101.767 28.0568 101.933 27.7784C102.099 27.5 102.322 27.2796 102.604 27.1172C102.886 26.9548 103.201 26.8321 103.549 26.7493C103.897 26.6664 104.251 26.6035 104.613 26.5604C105.07 26.5073 105.441 26.4643 105.726 26.4311C106.011 26.3946 106.218 26.3366 106.348 26.2571C106.477 26.1776 106.542 26.0483 106.542 25.8693V25.8345C106.542 25.4003 106.419 25.0639 106.174 24.8253C105.932 24.5866 105.57 24.4673 105.09 24.4673C104.589 24.4673 104.195 24.5784 103.907 24.8004C103.622 25.0192 103.424 25.2628 103.315 25.5312L101.918 25.2131C102.084 24.7491 102.326 24.3745 102.644 24.0895C102.965 23.8011 103.335 23.5923 103.752 23.4631C104.17 23.3305 104.609 23.2642 105.07 23.2642C105.375 23.2642 105.698 23.3007 106.039 23.3736C106.384 23.4432 106.706 23.5724 107.004 23.7614C107.306 23.9503 107.552 24.2204 107.745 24.5717C107.937 24.9197 108.033 25.3722 108.033 25.929V31H106.581V29.956H106.522C106.426 30.1482 106.281 30.3371 106.089 30.5227C105.897 30.7083 105.65 30.8625 105.348 30.9851C105.047 31.1077 104.685 31.169 104.265 31.169ZM104.588 29.9759C104.999 29.9759 105.35 29.8946 105.642 29.7322C105.937 29.5698 106.16 29.3577 106.313 29.0959C106.469 28.8307 106.547 28.5473 106.547 28.2457V27.2614C106.493 27.3144 106.391 27.3641 106.238 27.4105C106.089 27.4536 105.918 27.4917 105.726 27.5249C105.534 27.5547 105.347 27.5829 105.164 27.6094C104.982 27.6326 104.83 27.6525 104.707 27.669C104.419 27.7055 104.155 27.7668 103.917 27.853C103.681 27.9392 103.492 28.0634 103.35 28.2259C103.211 28.3849 103.141 28.5971 103.141 28.8622C103.141 29.2301 103.277 29.5085 103.549 29.6974C103.82 29.883 104.167 29.9759 104.588 29.9759ZM110.013 31V23.3636H111.44V24.6065H111.534C111.693 24.1856 111.954 23.8575 112.315 23.6222C112.676 23.3835 113.109 23.2642 113.612 23.2642C114.123 23.2642 114.55 23.3835 114.895 23.6222C115.243 23.8608 115.5 24.1889 115.666 24.6065H115.745C115.927 24.1989 116.218 23.8741 116.615 23.6321C117.013 23.3868 117.487 23.2642 118.037 23.2642C118.73 23.2642 119.295 23.4813 119.732 23.9155C120.173 24.3497 120.394 25.0043 120.394 25.8793V31H118.907V26.0185C118.907 25.5014 118.766 25.1269 118.485 24.8949C118.203 24.6629 117.866 24.5469 117.475 24.5469C116.991 24.5469 116.615 24.696 116.347 24.9943C116.078 25.2893 115.944 25.6688 115.944 26.1328V31H114.463V25.924C114.463 25.5097 114.333 25.1766 114.075 24.9247C113.816 24.6728 113.48 24.5469 113.066 24.5469C112.784 24.5469 112.524 24.6214 112.285 24.7706C112.05 24.9164 111.859 25.1203 111.713 25.3821C111.571 25.6439 111.499 25.9472 111.499 26.2919V31H110.013ZM125.677 31.1541C124.925 31.1541 124.277 30.9934 123.733 30.6719C123.193 30.3471 122.775 29.8913 122.48 29.3047C122.189 28.7147 122.043 28.0237 122.043 27.2315C122.043 26.4493 122.189 25.7599 122.48 25.1634C122.775 24.5668 123.186 24.1011 123.713 23.7663C124.244 23.4316 124.864 23.2642 125.573 23.2642C126.004 23.2642 126.421 23.3355 126.826 23.478C127.23 23.6205 127.593 23.8442 127.914 24.1491C128.236 24.4541 128.489 24.8501 128.675 25.3374C128.861 25.8213 128.953 26.4096 128.953 27.1023V27.6293H122.883V26.5156H127.497C127.497 26.1245 127.417 25.7782 127.258 25.4766C127.099 25.1716 126.875 24.9313 126.587 24.7557C126.302 24.58 125.967 24.4922 125.583 24.4922C125.165 24.4922 124.801 24.5949 124.489 24.8004C124.181 25.0026 123.942 25.2678 123.773 25.5959C123.607 25.9207 123.525 26.2737 123.525 26.6548V27.5249C123.525 28.0353 123.614 28.4695 123.793 28.8274C123.975 29.1854 124.229 29.4588 124.554 29.6477C124.878 29.8333 125.258 29.9261 125.692 29.9261C125.974 29.9261 126.231 29.8864 126.463 29.8068C126.695 29.724 126.895 29.6013 127.064 29.4389C127.233 29.2765 127.363 29.076 127.452 28.8374L128.859 29.0909C128.746 29.5052 128.544 29.8681 128.252 30.1797C127.964 30.4879 127.601 30.7282 127.164 30.9006C126.73 31.0696 126.234 31.1541 125.677 31.1541ZM137.525 31.1541C136.809 31.1541 136.184 30.9901 135.65 30.6619C135.117 30.3338 134.702 29.8748 134.407 29.2848C134.112 28.6948 133.965 28.0054 133.965 27.2166C133.965 26.4245 134.112 25.7318 134.407 25.1385C134.702 24.5452 135.117 24.0845 135.65 23.7564C136.184 23.4283 136.809 23.2642 137.525 23.2642C138.24 23.2642 138.865 23.4283 139.399 23.7564C139.932 24.0845 140.347 24.5452 140.642 25.1385C140.937 25.7318 141.084 26.4245 141.084 27.2166C141.084 28.0054 140.937 28.6948 140.642 29.2848C140.347 29.8748 139.932 30.3338 139.399 30.6619C138.865 30.9901 138.24 31.1541 137.525 31.1541ZM137.529 29.9062C137.993 29.9062 138.378 29.7836 138.683 29.5384C138.988 29.2931 139.213 28.9666 139.359 28.5589C139.508 28.1513 139.583 27.7022 139.583 27.2116C139.583 26.7244 139.508 26.277 139.359 25.8693C139.213 25.4583 138.988 25.1286 138.683 24.88C138.378 24.6314 137.993 24.5071 137.529 24.5071C137.062 24.5071 136.674 24.6314 136.366 24.88C136.061 25.1286 135.834 25.4583 135.685 25.8693C135.539 26.277 135.466 26.7244 135.466 27.2116C135.466 27.7022 135.539 28.1513 135.685 28.5589C135.834 28.9666 136.061 29.2931 136.366 29.5384C136.674 29.7836 137.062 29.9062 137.529 29.9062ZM146.378 23.3636V24.5568H142.062V23.3636H146.378ZM143.246 31V22.4787C143.246 22.0014 143.35 21.6053 143.559 21.2905C143.768 20.9723 144.044 20.7353 144.389 20.5795C144.734 20.4205 145.108 20.3409 145.513 20.3409C145.811 20.3409 146.066 20.3658 146.278 20.4155C146.49 20.4619 146.648 20.505 146.751 20.5447L146.403 21.7479C146.333 21.728 146.243 21.7048 146.134 21.6783C146.025 21.6484 145.892 21.6335 145.736 21.6335C145.375 21.6335 145.117 21.723 144.961 21.902C144.808 22.081 144.732 22.3395 144.732 22.6776V31H143.246ZM160.192 24.1293H158.641C158.582 23.7978 158.471 23.5062 158.308 23.2543C158.146 23.0024 157.947 22.7886 157.712 22.6129C157.476 22.4373 157.213 22.3047 156.921 22.2152C156.633 22.1257 156.326 22.081 156.001 22.081C155.415 22.081 154.889 22.2285 154.425 22.5234C153.965 22.8184 153.6 23.2509 153.332 23.821C153.067 24.3911 152.934 25.0871 152.934 25.9091C152.934 26.7377 153.067 27.437 153.332 28.0071C153.6 28.5772 153.966 29.008 154.43 29.2997C154.894 29.5914 155.416 29.7372 155.996 29.7372C156.318 29.7372 156.623 29.6941 156.911 29.608C157.203 29.5185 157.466 29.3875 157.702 29.2152C157.937 29.0429 158.136 28.8324 158.298 28.5838C158.464 28.3319 158.578 28.0436 158.641 27.7188L160.192 27.7237C160.11 28.2242 159.949 28.6849 159.71 29.1058C159.475 29.5234 159.172 29.8847 158.8 30.1896C158.433 30.4912 158.012 30.7249 157.538 30.8906C157.064 31.0563 156.547 31.1392 155.987 31.1392C155.105 31.1392 154.319 30.9304 153.63 30.5128C152.941 30.0919 152.397 29.4903 151.999 28.7081C151.605 27.9259 151.408 26.9929 151.408 25.9091C151.408 24.822 151.607 23.889 152.004 23.1101C152.402 22.3279 152.946 21.728 153.635 21.3104C154.324 20.8894 155.108 20.679 155.987 20.679C156.527 20.679 157.031 20.7569 157.498 20.9126C157.969 21.0651 158.391 21.2905 158.766 21.5888C159.14 21.8838 159.45 22.245 159.695 22.6726C159.941 23.0968 160.106 23.5824 160.192 24.1293ZM162.921 20.8182L165.754 29.1108H165.869L168.703 20.8182H170.363L166.699 31H164.924L161.26 20.8182H162.921Z" fill="#7D7D7B"/>
<g filter="url(#filter1_dd_84_764)">
<rect x="1065" y="12" width="121" height="28" rx="6" fill="white"/>
<path d="M1078.2 31V21.06H1081.4C1082.95 21.06 1084.15 21.494 1084.99 22.362C1085.83 23.2207 1086.25 24.448 1086.25 26.044C1086.25 27.6307 1085.84 28.8533 1085.01 29.712C1084.19 30.5707 1083.01 31 1081.48 31H1078.2ZM1079.72 29.614H1081.4C1082.5 29.614 1083.32 29.32 1083.86 28.732C1084.41 28.1347 1084.69 27.2387 1084.69 26.044C1084.69 24.8307 1084.41 23.93 1083.86 23.342C1083.32 22.7447 1082.5 22.446 1081.4 22.446H1079.72V29.614ZM1091.15 31.168C1090.44 31.168 1089.82 31.0093 1089.29 30.692C1088.76 30.3747 1088.35 29.922 1088.06 29.334C1087.77 28.746 1087.62 28.06 1087.62 27.276C1087.62 26.4827 1087.77 25.7967 1088.06 25.218C1088.35 24.6393 1088.76 24.1913 1089.29 23.874C1089.82 23.5473 1090.44 23.384 1091.15 23.384C1091.86 23.384 1092.48 23.5473 1093.01 23.874C1093.55 24.1913 1093.96 24.6393 1094.25 25.218C1094.53 25.7967 1094.68 26.4827 1094.68 27.276C1094.68 28.06 1094.53 28.746 1094.25 29.334C1093.96 29.922 1093.55 30.3747 1093.01 30.692C1092.48 31.0093 1091.86 31.168 1091.15 31.168ZM1091.15 29.88C1091.79 29.88 1092.28 29.6513 1092.62 29.194C1092.97 28.7273 1093.14 28.088 1093.14 27.276C1093.14 26.464 1092.97 25.8293 1092.62 25.372C1092.28 24.9053 1091.79 24.672 1091.15 24.672C1090.53 24.672 1090.04 24.9053 1089.68 25.372C1089.34 25.8293 1089.16 26.464 1089.16 27.276C1089.16 28.088 1089.34 28.7273 1089.68 29.194C1090.04 29.6513 1090.53 29.88 1091.15 29.88ZM1097.47 31L1095.2 23.552H1096.76L1098.35 29.376L1099.99 23.552H1101.39L1103.03 29.376L1104.64 23.552H1106.19L1103.93 31H1102.26L1100.69 25.68L1099.12 31H1097.47ZM1107.23 31V23.552H1108.58L1108.64 25.54L1108.46 25.442C1108.54 24.9567 1108.7 24.5647 1108.93 24.266C1109.17 23.9673 1109.45 23.748 1109.79 23.608C1110.12 23.4587 1110.49 23.384 1110.88 23.384C1111.44 23.384 1111.9 23.51 1112.27 23.762C1112.64 24.0047 1112.92 24.3407 1113.11 24.77C1113.3 25.19 1113.4 25.6707 1113.4 26.212V31H1111.92V26.66C1111.92 26.2213 1111.87 25.8527 1111.78 25.554C1111.68 25.2553 1111.53 25.0267 1111.31 24.868C1111.1 24.7093 1110.82 24.63 1110.47 24.63C1109.95 24.63 1109.53 24.8027 1109.2 25.148C1108.87 25.4933 1108.71 25.9973 1108.71 26.66V31H1107.23ZM1116.94 31C1116.46 31 1116.07 30.874 1115.77 30.622C1115.47 30.37 1115.32 29.9687 1115.32 29.418V21.06H1116.8V29.278C1116.8 29.446 1116.85 29.572 1116.93 29.656C1117.02 29.74 1117.15 29.782 1117.32 29.782H1117.91V31H1116.94ZM1122.24 31.168C1121.53 31.168 1120.91 31.0093 1120.38 30.692C1119.85 30.3747 1119.44 29.922 1119.15 29.334C1118.86 28.746 1118.71 28.06 1118.71 27.276C1118.71 26.4827 1118.86 25.7967 1119.15 25.218C1119.44 24.6393 1119.85 24.1913 1120.38 23.874C1120.91 23.5473 1121.53 23.384 1122.24 23.384C1122.95 23.384 1123.57 23.5473 1124.1 23.874C1124.64 24.1913 1125.05 24.6393 1125.34 25.218C1125.62 25.7967 1125.77 26.4827 1125.77 27.276C1125.77 28.06 1125.62 28.746 1125.34 29.334C1125.05 29.922 1124.64 30.3747 1124.1 30.692C1123.57 31.0093 1122.95 31.168 1122.24 31.168ZM1122.24 29.88C1122.88 29.88 1123.37 29.6513 1123.71 29.194C1124.06 28.7273 1124.23 28.088 1124.23 27.276C1124.23 26.464 1124.06 25.8293 1123.71 25.372C1123.37 24.9053 1122.88 24.672 1122.24 24.672C1121.62 24.672 1121.13 24.9053 1120.77 25.372C1120.43 25.8293 1120.25 26.464 1120.25 27.276C1120.25 28.088 1120.43 28.7273 1120.77 29.194C1121.13 29.6513 1121.62 29.88 1122.24 29.88ZM1129.51 31.168C1128.73 31.168 1128.11 30.9907 1127.64 30.636C1127.19 30.2813 1126.96 29.782 1126.96 29.138C1126.96 28.494 1127.15 27.9947 1127.53 27.64C1127.92 27.276 1128.53 27.0147 1129.34 26.856L1131.9 26.366C1131.9 25.7873 1131.76 25.358 1131.49 25.078C1131.22 24.7887 1130.82 24.644 1130.29 24.644C1129.81 24.644 1129.44 24.7513 1129.17 24.966C1128.9 25.1713 1128.71 25.4793 1128.61 25.89L1127.08 25.792C1127.22 25.0453 1127.57 24.4573 1128.12 24.028C1128.68 23.5987 1129.4 23.384 1130.29 23.384C1131.3 23.384 1132.06 23.6547 1132.59 24.196C1133.12 24.728 1133.38 25.4793 1133.38 26.45V29.348C1133.38 29.5253 1133.41 29.6513 1133.47 29.726C1133.53 29.7913 1133.64 29.824 1133.78 29.824H1134.04V31C1133.99 31.0093 1133.92 31.0187 1133.82 31.028C1133.71 31.0373 1133.61 31.042 1133.5 31.042C1133.18 31.042 1132.9 30.9907 1132.67 30.888C1132.45 30.7853 1132.28 30.6173 1132.17 30.384C1132.05 30.1413 1132 29.8193 1132 29.418L1132.15 29.488C1132.08 29.8147 1131.91 30.104 1131.66 30.356C1131.42 30.608 1131.11 30.8087 1130.72 30.958C1130.35 31.098 1129.94 31.168 1129.51 31.168ZM1129.74 29.992C1130.19 29.992 1130.57 29.908 1130.89 29.74C1131.21 29.5627 1131.46 29.32 1131.63 29.012C1131.81 28.704 1131.9 28.354 1131.9 27.962V27.486L1129.72 27.906C1129.27 27.99 1128.95 28.1253 1128.76 28.312C1128.59 28.4893 1128.5 28.718 1128.5 28.998C1128.5 29.3153 1128.6 29.5627 1128.82 29.74C1129.04 29.908 1129.35 29.992 1129.74 29.992ZM1137.89 31.168C1137.25 31.168 1136.7 31.0093 1136.22 30.692C1135.75 30.3747 1135.39 29.9267 1135.14 29.348C1134.9 28.76 1134.78 28.0693 1134.78 27.276C1134.78 26.4827 1134.9 25.7967 1135.16 25.218C1135.41 24.63 1135.77 24.1773 1136.23 23.86C1136.7 23.5427 1137.25 23.384 1137.89 23.384C1138.4 23.384 1138.86 23.4913 1139.26 23.706C1139.66 23.9207 1139.96 24.2193 1140.17 24.602V21.06H1141.65V31H1140.27L1140.22 29.88C1140.02 30.2813 1139.71 30.5987 1139.29 30.832C1138.87 31.056 1138.41 31.168 1137.89 31.168ZM1138.28 29.88C1138.68 29.88 1139.02 29.7773 1139.3 29.572C1139.58 29.3667 1139.79 29.068 1139.94 28.676C1140.09 28.284 1140.17 27.8173 1140.17 27.276C1140.17 26.716 1140.09 26.2447 1139.94 25.862C1139.79 25.47 1139.58 25.176 1139.3 24.98C1139.02 24.7747 1138.68 24.672 1138.28 24.672C1137.68 24.672 1137.2 24.9053 1136.85 25.372C1136.49 25.8293 1136.32 26.464 1136.32 27.276C1136.32 28.0787 1136.49 28.7133 1136.85 29.18C1137.2 29.6467 1137.68 29.88 1138.28 29.88ZM1147.32 31V21.06H1151.03C1152.16 21.06 1153.05 21.3353 1153.69 21.886C1154.32 22.4273 1154.64 23.1833 1154.64 24.154C1154.64 24.798 1154.49 25.358 1154.2 25.834C1153.91 26.3007 1153.5 26.66 1152.96 26.912C1152.43 27.1547 1151.78 27.276 1151.03 27.276H1148.83V31H1147.32ZM1148.83 25.904H1150.98C1151.66 25.904 1152.18 25.7593 1152.54 25.47C1152.89 25.1713 1153.07 24.7327 1153.07 24.154C1153.07 23.5847 1152.89 23.16 1152.54 22.88C1152.18 22.5907 1151.66 22.446 1150.98 22.446H1148.83V25.904ZM1156.24 31V21.06H1159.44C1160.99 21.06 1162.19 21.494 1163.03 22.362C1163.87 23.2207 1164.29 24.448 1164.29 26.044C1164.29 27.6307 1163.88 28.8533 1163.05 29.712C1162.23 30.5707 1161.05 31 1159.52 31H1156.24ZM1157.76 29.614H1159.44C1160.54 29.614 1161.36 29.32 1161.9 28.732C1162.45 28.1347 1162.73 27.2387 1162.73 26.044C1162.73 24.8307 1162.45 23.93 1161.9 23.342C1161.36 22.7447 1160.54 22.446 1159.44 22.446H1157.76V29.614ZM1165.91 31V21.06H1172.36V22.446H1166.62L1167.42 21.62V26.184L1166.62 25.47H1172.11V26.814H1166.62L1167.42 26.1V31H1165.91Z" fill="#3E1C00"/>
</g>
<g clip-path="url(#clip1_84_764)">
<path d="M598.711 452.337C626.711 452.337 649.411 429.637 649.411 401.537C649.411 373.437 626.611 350.737 598.711 350.737C570.711 350.737 548.011 373.437 548.011 401.537C548.011 429.637 570.711 452.337 598.711 452.337Z" fill="#F0EDEB" stroke="#3E1C00" stroke-opacity="0.3" stroke-width="2" stroke-miterlimit="10"/>
<path d="M598.655 423.069C598.667 423.069 598.716 423.08 598.768 423.138C598.815 423.191 598.842 423.26 598.839 423.332C598.821 423.52 598.77 423.613 598.741 423.648C598.727 423.664 598.718 423.669 598.716 423.67C598.713 423.671 598.705 423.674 598.687 423.674L596.916 423.649C596.903 423.649 596.854 423.639 596.802 423.58C596.754 423.525 596.726 423.454 596.731 423.379C596.739 423.251 596.784 423.15 596.83 423.091C596.852 423.063 596.87 423.051 596.878 423.046L596.883 423.045L598.655 423.069Z" fill="#D5DAE5" stroke="#B7AA9F"/>
<path d="M590.661 376.496L612.144 420.606C612.862 422.134 612.227 423.911 610.699 424.629L567.364 445.095C565.835 445.813 564.058 445.178 563.34 443.65L536.412 386.561C535.694 385.033 536.329 383.256 537.857 382.538L569.22 367.769L590.661 376.496Z" fill="white" stroke="#B7AA9F" stroke-width="2" stroke-miterlimit="10"/>
<mask id="path-10-inside-2_84_764" fill="white">
<path d="M569.22 368.769L574.964 380.995C575.798 382.676 577.944 383.418 579.626 382.584L590.661 377.496"/>
</mask>
<path d="M569.22 368.769L574.964 380.995C575.798 382.676 577.944 383.418 579.626 382.584L590.661 377.496" fill="#F0EDEB"/>
<path d="M574.964 380.995L574.059 381.42L574.064 381.429L574.068 381.439L574.964 380.995ZM579.626 382.584L579.207 381.676L579.194 381.682L579.181 381.688L579.626 382.584ZM569.22 368.769L568.315 369.194L574.059 381.42L574.964 380.995L575.869 380.569L570.125 368.344L569.22 368.769ZM574.964 380.995L574.068 381.439C575.143 383.607 577.885 384.563 580.07 383.48L579.626 382.584L579.181 381.688C578.002 382.272 576.452 381.745 575.86 380.551L574.964 380.995ZM579.626 382.584L580.044 383.492L591.08 378.404L590.661 377.496L590.243 376.588L579.207 381.676L579.626 382.584Z" fill="#B7AA9F" mask="url(#path-10-inside-2_84_764)"/>
<path d="M629.714 381.892L630.336 430.951C630.334 432.639 629.002 433.976 627.314 433.974L579.389 434.007C577.7 434.004 576.363 432.673 576.366 430.984L576.353 367.863C576.355 366.174 577.687 364.838 579.375 364.84L614.042 364.855L629.714 381.892Z" fill="white" stroke="#B7AA9F" stroke-width="2" stroke-miterlimit="10"/>
<mask id="path-13-inside-3_84_764" fill="white">
<path d="M613.042 364.855L613.024 378.363C613.061 380.24 614.686 381.825 616.563 381.789L628.714 381.892"/>
</mask>
<path d="M613.042 364.855L613.024 378.363C613.061 380.24 614.686 381.825 616.563 381.789L628.714 381.892" fill="#F0EDEB"/>
<path d="M613.024 378.363L612.024 378.362L612.024 378.372L612.024 378.383L613.024 378.363ZM616.563 381.789L616.571 380.789L616.557 380.788L616.543 380.789L616.563 381.789ZM613.042 364.855L612.042 364.854L612.024 378.362L613.024 378.363L614.024 378.364L614.042 364.857L613.042 364.855ZM613.024 378.363L612.024 378.383C612.072 380.803 614.145 382.836 616.582 382.788L616.563 381.789L616.543 380.789C615.227 380.815 614.05 379.677 614.024 378.343L613.024 378.363ZM616.563 381.789L616.554 382.788L628.706 382.892L628.714 381.892L628.723 380.892L616.571 380.789L616.563 381.789Z" fill="#B7AA9F" mask="url(#path-13-inside-3_84_764)"/>
<path d="M659.872 403.651L639.831 448.488C639.164 450 637.3 450.663 635.809 449.913L592.39 429.891C590.877 429.224 590.215 427.359 590.882 425.847L617.326 368.57C617.993 367.057 619.857 366.394 621.348 367.144L652.876 381.709L659.872 403.651Z" fill="white" stroke="#B7AA9F" stroke-width="2" stroke-miterlimit="10"/>
<mask id="path-16-inside-4_84_764" fill="white">
<path d="M651.793 381.687L646.143 393.971C645.327 395.711 646.195 397.808 647.935 398.624L658.872 403.651"/>
</mask>
<path d="M651.793 381.687L646.143 393.971C645.327 395.711 646.195 397.808 647.935 398.624L658.872 403.651" fill="#F0EDEB"/>
<path d="M646.143 393.971L647.954 394.821L647.957 394.814L647.96 394.807L646.143 393.971ZM647.935 398.624L647.085 400.435L647.092 400.438L647.099 400.441L647.935 398.624ZM651.793 381.687L649.976 380.851L644.326 393.136L646.143 393.971L647.96 394.807L653.61 382.523L651.793 381.687ZM646.143 393.971L644.332 393.122C643.002 395.958 644.444 399.196 647.085 400.435L647.935 398.624L648.784 396.813C647.945 396.42 647.652 395.465 647.954 394.821L646.143 393.971ZM647.935 398.624L647.099 400.441L658.037 405.468L658.872 403.651L659.708 401.834L648.77 396.807L647.935 398.624Z" fill="#B7AA9F" mask="url(#path-16-inside-4_84_764)"/>
</g>
<path d="M504.929 476.493C504.876 476.022 504.657 475.658 504.272 475.399C503.888 475.137 503.404 475.006 502.821 475.006C502.403 475.006 502.042 475.073 501.737 475.205C501.432 475.335 501.195 475.513 501.026 475.742C500.86 475.968 500.777 476.224 500.777 476.513C500.777 476.755 500.834 476.964 500.946 477.139C501.062 477.315 501.213 477.462 501.399 477.582C501.588 477.698 501.79 477.795 502.005 477.875C502.221 477.951 502.428 478.014 502.627 478.064L503.621 478.322C503.946 478.402 504.279 478.51 504.62 478.646C504.962 478.781 505.278 478.96 505.57 479.183C505.862 479.405 506.097 479.68 506.276 480.008C506.458 480.336 506.549 480.729 506.549 481.186C506.549 481.763 506.4 482.275 506.102 482.722C505.807 483.17 505.378 483.523 504.814 483.781C504.254 484.04 503.576 484.169 502.781 484.169C502.019 484.169 501.359 484.048 500.802 483.806C500.245 483.564 499.81 483.221 499.495 482.777C499.18 482.33 499.006 481.799 498.973 481.186H500.514C500.544 481.554 500.663 481.861 500.872 482.106C501.084 482.348 501.354 482.528 501.682 482.648C502.014 482.764 502.377 482.822 502.771 482.822C503.205 482.822 503.591 482.754 503.929 482.618C504.271 482.479 504.539 482.286 504.735 482.041C504.93 481.793 505.028 481.503 505.028 481.171C505.028 480.87 504.942 480.623 504.77 480.43C504.601 480.238 504.37 480.079 504.079 479.953C503.79 479.827 503.464 479.716 503.099 479.62L501.896 479.292C501.081 479.07 500.434 478.743 499.957 478.312C499.483 477.882 499.246 477.312 499.246 476.602C499.246 476.016 499.405 475.504 499.723 475.066C500.042 474.629 500.473 474.289 501.016 474.047C501.56 473.802 502.173 473.679 502.856 473.679C503.545 473.679 504.153 473.8 504.68 474.042C505.21 474.284 505.628 474.617 505.933 475.041C506.238 475.462 506.397 475.946 506.41 476.493H504.929ZM511.831 476.364V477.557H507.659V476.364H511.831ZM508.778 474.534H510.264V481.758C510.264 482.046 510.308 482.263 510.394 482.409C510.48 482.552 510.591 482.649 510.727 482.702C510.866 482.752 511.017 482.777 511.179 482.777C511.299 482.777 511.403 482.769 511.492 482.752C511.582 482.736 511.652 482.722 511.701 482.712L511.97 483.94C511.884 483.973 511.761 484.007 511.602 484.04C511.443 484.076 511.244 484.096 511.005 484.099C510.614 484.106 510.25 484.036 509.911 483.891C509.573 483.745 509.3 483.519 509.091 483.214C508.882 482.91 508.778 482.527 508.778 482.066V474.534ZM515.697 484.169C515.213 484.169 514.776 484.08 514.385 483.901C513.994 483.718 513.684 483.455 513.455 483.11C513.23 482.765 513.117 482.343 513.117 481.842C513.117 481.411 513.2 481.057 513.366 480.778C513.531 480.5 513.755 480.28 514.037 480.117C514.318 479.955 514.633 479.832 514.981 479.749C515.329 479.666 515.684 479.603 516.045 479.56C516.503 479.507 516.874 479.464 517.159 479.431C517.444 479.395 517.651 479.337 517.78 479.257C517.91 479.178 517.974 479.048 517.974 478.869V478.835C517.974 478.4 517.852 478.064 517.606 477.825C517.364 477.587 517.003 477.467 516.522 477.467C516.022 477.467 515.628 477.578 515.339 477.8C515.054 478.019 514.857 478.263 514.748 478.531L513.351 478.213C513.516 477.749 513.758 477.375 514.076 477.089C514.398 476.801 514.767 476.592 515.185 476.463C515.603 476.33 516.042 476.264 516.503 476.264C516.807 476.264 517.131 476.301 517.472 476.374C517.817 476.443 518.138 476.572 518.437 476.761C518.738 476.95 518.985 477.22 519.177 477.572C519.37 477.92 519.466 478.372 519.466 478.929V484H518.014V482.956H517.954C517.858 483.148 517.714 483.337 517.522 483.523C517.33 483.708 517.083 483.862 516.781 483.985C516.479 484.108 516.118 484.169 515.697 484.169ZM516.02 482.976C516.431 482.976 516.783 482.895 517.074 482.732C517.369 482.57 517.593 482.358 517.745 482.096C517.901 481.831 517.979 481.547 517.979 481.246V480.261C517.926 480.314 517.823 480.364 517.671 480.411C517.522 480.454 517.351 480.492 517.159 480.525C516.967 480.555 516.779 480.583 516.597 480.609C516.415 480.633 516.262 480.652 516.14 480.669C515.851 480.705 515.588 480.767 515.349 480.853C515.114 480.939 514.925 481.063 514.782 481.226C514.643 481.385 514.574 481.597 514.574 481.862C514.574 482.23 514.709 482.509 514.981 482.697C515.253 482.883 515.599 482.976 516.02 482.976ZM521.446 484V476.364H522.882V477.577H522.962C523.101 477.166 523.346 476.843 523.698 476.607C524.052 476.369 524.453 476.249 524.901 476.249C524.994 476.249 525.103 476.253 525.229 476.259C525.358 476.266 525.459 476.274 525.532 476.284V477.706C525.473 477.689 525.367 477.671 525.214 477.651C525.062 477.628 524.909 477.616 524.757 477.616C524.405 477.616 524.092 477.691 523.817 477.84C523.545 477.986 523.33 478.19 523.171 478.452C523.012 478.71 522.932 479.005 522.932 479.337V484H521.446ZM530.834 476.364V477.557H526.663V476.364H530.834ZM527.782 474.534H529.268V481.758C529.268 482.046 529.311 482.263 529.398 482.409C529.484 482.552 529.595 482.649 529.731 482.702C529.87 482.752 530.021 482.777 530.183 482.777C530.302 482.777 530.407 482.769 530.496 482.752C530.586 482.736 530.655 482.722 530.705 482.712L530.974 483.94C530.887 483.973 530.765 484.007 530.606 484.04C530.447 484.076 530.248 484.096 530.009 484.099C529.618 484.106 529.253 484.036 528.915 483.891C528.577 483.745 528.304 483.519 528.095 483.214C527.886 482.91 527.782 482.527 527.782 482.066V474.534ZM537.839 484L535.592 476.364H537.128L538.625 481.972H538.699L540.201 476.364H541.737L543.229 481.947H543.303L544.79 476.364H546.326L544.084 484H542.567L541.016 478.487H540.902L539.351 484H537.839ZM547.737 484V476.364H549.173V477.577H549.253C549.392 477.166 549.637 476.843 549.989 476.607C550.343 476.369 550.744 476.249 551.192 476.249C551.285 476.249 551.394 476.253 551.52 476.259C551.649 476.266 551.75 476.274 551.823 476.284V477.706C551.764 477.689 551.658 477.671 551.505 477.651C551.353 477.628 551.2 477.616 551.048 477.616C550.696 477.616 550.383 477.691 550.108 477.84C549.836 477.986 549.621 478.19 549.462 478.452C549.303 478.71 549.223 479.005 549.223 479.337V484H547.737ZM553.11 484V476.364H554.596V484H553.11ZM553.86 475.185C553.602 475.185 553.38 475.099 553.194 474.927C553.012 474.751 552.921 474.542 552.921 474.3C552.921 474.055 553.012 473.846 553.194 473.674C553.38 473.498 553.602 473.411 553.86 473.411C554.119 473.411 554.339 473.498 554.522 473.674C554.707 473.846 554.8 474.055 554.8 474.3C554.8 474.542 554.707 474.751 554.522 474.927C554.339 475.099 554.119 475.185 553.86 475.185ZM560.161 476.364V477.557H555.989V476.364H560.161ZM557.108 474.534H558.595V481.758C558.595 482.046 558.638 482.263 558.724 482.409C558.81 482.552 558.921 482.649 559.057 482.702C559.196 482.752 559.347 482.777 559.509 482.777C559.629 482.777 559.733 482.769 559.823 482.752C559.912 482.736 559.982 482.722 560.031 482.712L560.3 483.94C560.214 483.973 560.091 484.007 559.932 484.04C559.773 484.076 559.574 484.096 559.335 484.099C558.944 484.106 558.58 484.036 558.242 483.891C557.903 483.745 557.63 483.519 557.421 483.214C557.212 482.91 557.108 482.527 557.108 482.066V474.534ZM561.805 484V476.364H563.291V484H561.805ZM562.556 475.185C562.297 475.185 562.075 475.099 561.889 474.927C561.707 474.751 561.616 474.542 561.616 474.3C561.616 474.055 561.707 473.846 561.889 473.674C562.075 473.498 562.297 473.411 562.556 473.411C562.814 473.411 563.035 473.498 563.217 473.674C563.402 473.846 563.495 474.055 563.495 474.3C563.495 474.542 563.402 474.751 563.217 474.927C563.035 475.099 562.814 475.185 562.556 475.185ZM566.778 479.466V484H565.291V476.364H566.718V477.607H566.813C566.988 477.202 567.263 476.877 567.638 476.632C568.016 476.387 568.491 476.264 569.065 476.264C569.585 476.264 570.041 476.374 570.432 476.592C570.823 476.808 571.126 477.129 571.342 477.557C571.557 477.984 571.665 478.513 571.665 479.143V484H570.178V479.322C570.178 478.768 570.034 478.336 569.746 478.024C569.457 477.709 569.061 477.552 568.558 477.552C568.213 477.552 567.906 477.626 567.638 477.776C567.373 477.925 567.162 478.143 567.006 478.432C566.854 478.717 566.778 479.062 566.778 479.466ZM576.86 487.023C576.254 487.023 575.732 486.943 575.294 486.784C574.86 486.625 574.505 486.415 574.23 486.153C573.955 485.891 573.75 485.604 573.614 485.293L574.891 484.766C574.981 484.911 575.1 485.066 575.249 485.228C575.402 485.394 575.607 485.535 575.866 485.651C576.128 485.767 576.464 485.825 576.875 485.825C577.439 485.825 577.904 485.687 578.272 485.412C578.64 485.14 578.824 484.706 578.824 484.109V482.608H578.729C578.64 482.77 578.511 482.951 578.342 483.15C578.176 483.349 577.947 483.521 577.656 483.667C577.364 483.813 576.984 483.886 576.517 483.886C575.914 483.886 575.37 483.745 574.886 483.463C574.406 483.178 574.025 482.759 573.743 482.205C573.465 481.648 573.325 480.964 573.325 480.152C573.325 479.34 573.463 478.644 573.738 478.064C574.016 477.484 574.398 477.04 574.881 476.732C575.365 476.42 575.914 476.264 576.527 476.264C577.001 476.264 577.384 476.344 577.676 476.503C577.967 476.659 578.194 476.841 578.357 477.05C578.522 477.259 578.65 477.442 578.739 477.602H578.849V476.364H580.305V484.169C580.305 484.825 580.153 485.364 579.848 485.785C579.543 486.206 579.131 486.517 578.61 486.719C578.093 486.922 577.51 487.023 576.86 487.023ZM576.845 482.653C577.273 482.653 577.634 482.553 577.929 482.354C578.227 482.152 578.453 481.864 578.605 481.489C578.761 481.112 578.839 480.659 578.839 480.132C578.839 479.618 578.763 479.166 578.61 478.775C578.458 478.384 578.234 478.079 577.939 477.86C577.644 477.638 577.279 477.527 576.845 477.527C576.398 477.527 576.025 477.643 575.727 477.875C575.428 478.104 575.203 478.415 575.051 478.81C574.901 479.204 574.827 479.645 574.827 480.132C574.827 480.633 574.903 481.072 575.055 481.45C575.208 481.827 575.433 482.122 575.732 482.335C576.033 482.547 576.404 482.653 576.845 482.653ZM587.66 484L585.413 476.364H586.949L588.445 481.972H588.52L590.021 476.364H591.557L593.049 481.947H593.123L594.61 476.364H596.146L593.904 484H592.388L590.837 478.487H590.722L589.171 484H587.66ZM597.557 484V476.364H599.043V484H597.557ZM598.308 475.185C598.049 475.185 597.827 475.099 597.641 474.927C597.459 474.751 597.368 474.542 597.368 474.3C597.368 474.055 597.459 473.846 597.641 473.674C597.827 473.498 598.049 473.411 598.308 473.411C598.566 473.411 598.787 473.498 598.969 473.674C599.154 473.846 599.247 474.055 599.247 474.3C599.247 474.542 599.154 474.751 598.969 474.927C598.787 475.099 598.566 475.185 598.308 475.185ZM604.608 476.364V477.557H600.437V476.364H604.608ZM601.555 474.534H603.042V481.758C603.042 482.046 603.085 482.263 603.171 482.409C603.257 482.552 603.368 482.649 603.504 482.702C603.643 482.752 603.794 482.777 603.957 482.777C604.076 482.777 604.18 482.769 604.27 482.752C604.359 482.736 604.429 482.722 604.479 482.712L604.747 483.94C604.661 483.973 604.538 484.007 604.379 484.04C604.22 484.076 604.021 484.096 603.783 484.099C603.391 484.106 603.027 484.036 602.689 483.891C602.351 483.745 602.077 483.519 601.869 483.214C601.66 482.91 601.555 482.527 601.555 482.066V474.534ZM607.903 479.466V484H606.416V473.818H607.883V477.607H607.977C608.156 477.196 608.43 476.869 608.798 476.627C609.166 476.385 609.646 476.264 610.239 476.264C610.763 476.264 611.22 476.372 611.612 476.587C612.006 476.803 612.311 477.124 612.526 477.552C612.745 477.976 612.854 478.506 612.854 479.143V484H611.368V479.322C611.368 478.762 611.224 478.327 610.935 478.019C610.647 477.708 610.246 477.552 609.732 477.552C609.381 477.552 609.066 477.626 608.788 477.776C608.513 477.925 608.296 478.143 608.136 478.432C607.981 478.717 607.903 479.062 607.903 479.466ZM619.523 484H617.892L621.556 473.818H623.331L626.995 484H625.364L622.486 475.668H622.406L619.523 484ZM619.796 480.013H625.086V481.305H619.796V480.013ZM628.414 484V476.364H629.901V484H628.414ZM629.165 475.185C628.907 475.185 628.684 475.099 628.499 474.927C628.317 474.751 628.225 474.542 628.225 474.3C628.225 474.055 628.317 473.846 628.499 473.674C628.684 473.498 628.907 473.411 629.165 473.411C629.424 473.411 629.644 473.498 629.826 473.674C630.012 473.846 630.105 474.055 630.105 474.3C630.105 474.542 630.012 474.751 629.826 474.927C629.644 475.099 629.424 475.185 629.165 475.185ZM638.822 484.154C638.106 484.154 637.482 483.99 636.948 483.662C636.414 483.334 636 482.875 635.705 482.285C635.41 481.695 635.263 481.005 635.263 480.217C635.263 479.424 635.41 478.732 635.705 478.138C636 477.545 636.414 477.085 636.948 476.756C637.482 476.428 638.106 476.264 638.822 476.264C639.538 476.264 640.163 476.428 640.697 476.756C641.23 477.085 641.645 477.545 641.94 478.138C642.235 478.732 642.382 479.424 642.382 480.217C642.382 481.005 642.235 481.695 641.94 482.285C641.645 482.875 641.23 483.334 640.697 483.662C640.163 483.99 639.538 484.154 638.822 484.154ZM638.827 482.906C639.291 482.906 639.676 482.784 639.981 482.538C640.286 482.293 640.511 481.967 640.657 481.559C640.806 481.151 640.881 480.702 640.881 480.212C640.881 479.724 640.806 479.277 640.657 478.869C640.511 478.458 640.286 478.129 639.981 477.88C639.676 477.631 639.291 477.507 638.827 477.507C638.36 477.507 637.972 477.631 637.664 477.88C637.359 478.129 637.132 478.458 636.983 478.869C636.837 479.277 636.764 479.724 636.764 480.212C636.764 480.702 636.837 481.151 636.983 481.559C637.132 481.967 637.359 482.293 637.664 482.538C637.972 482.784 638.36 482.906 638.827 482.906ZM644.041 484V476.364H645.478V477.577H645.558C645.697 477.166 645.942 476.843 646.293 476.607C646.648 476.369 647.049 476.249 647.497 476.249C647.589 476.249 647.699 476.253 647.825 476.259C647.954 476.266 648.055 476.274 648.128 476.284V477.706C648.068 477.689 647.962 477.671 647.81 477.651C647.657 477.628 647.505 477.616 647.352 477.616C647.001 477.616 646.688 477.691 646.413 477.84C646.141 477.986 645.926 478.19 645.766 478.452C645.607 478.71 645.528 479.005 645.528 479.337V484H644.041ZM657.957 480.833V476.364H659.448V484H657.987V482.678H657.907C657.731 483.085 657.45 483.425 657.062 483.697C656.677 483.965 656.198 484.099 655.625 484.099C655.135 484.099 654.7 483.992 654.323 483.776C653.948 483.558 653.653 483.234 653.438 482.807C653.225 482.379 653.119 481.851 653.119 481.221V476.364H654.606V481.042C654.606 481.562 654.75 481.977 655.038 482.285C655.327 482.593 655.701 482.747 656.162 482.747C656.44 482.747 656.717 482.678 656.992 482.538C657.271 482.399 657.501 482.189 657.683 481.907C657.869 481.625 657.96 481.267 657.957 480.833ZM661.446 486.864V476.364H662.897V477.602H663.022C663.108 477.442 663.232 477.259 663.394 477.05C663.557 476.841 663.782 476.659 664.071 476.503C664.359 476.344 664.74 476.264 665.214 476.264C665.831 476.264 666.381 476.42 666.865 476.732C667.349 477.043 667.728 477.492 668.003 478.079C668.282 478.665 668.421 479.371 668.421 480.197C668.421 481.022 668.283 481.73 668.008 482.32C667.733 482.906 667.355 483.359 666.875 483.677C666.394 483.992 665.845 484.149 665.229 484.149C664.765 484.149 664.385 484.071 664.09 483.915C663.799 483.76 663.57 483.577 663.404 483.369C663.239 483.16 663.111 482.974 663.022 482.812H662.932V486.864H661.446ZM662.902 480.182C662.902 480.719 662.98 481.189 663.136 481.594C663.292 481.998 663.517 482.315 663.812 482.543C664.107 482.769 664.468 482.881 664.896 482.881C665.34 482.881 665.711 482.764 666.009 482.528C666.308 482.29 666.533 481.967 666.686 481.559C666.841 481.151 666.919 480.692 666.919 480.182C666.919 479.678 666.843 479.226 666.691 478.825C666.541 478.424 666.316 478.107 666.014 477.875C665.716 477.643 665.343 477.527 664.896 477.527C664.465 477.527 664.1 477.638 663.802 477.86C663.507 478.082 663.283 478.392 663.131 478.79C662.978 479.187 662.902 479.652 662.902 480.182ZM671.573 473.818V484H670.086V473.818H671.573ZM676.789 484.154C676.073 484.154 675.448 483.99 674.915 483.662C674.381 483.334 673.967 482.875 673.672 482.285C673.377 481.695 673.229 481.005 673.229 480.217C673.229 479.424 673.377 478.732 673.672 478.138C673.967 477.545 674.381 477.085 674.915 476.756C675.448 476.428 676.073 476.264 676.789 476.264C677.505 476.264 678.13 476.428 678.663 476.756C679.197 477.085 679.611 477.545 679.906 478.138C680.201 478.732 680.349 479.424 680.349 480.217C680.349 481.005 680.201 481.695 679.906 482.285C679.611 482.875 679.197 483.334 678.663 483.662C678.13 483.99 677.505 484.154 676.789 484.154ZM676.794 482.906C677.258 482.906 677.643 482.784 677.948 482.538C678.252 482.293 678.478 481.967 678.624 481.559C678.773 481.151 678.847 480.702 678.847 480.212C678.847 479.724 678.773 479.277 678.624 478.869C678.478 478.458 678.252 478.129 677.948 477.88C677.643 477.631 677.258 477.507 676.794 477.507C676.327 477.507 675.939 477.631 675.631 477.88C675.326 478.129 675.099 478.458 674.95 478.869C674.804 479.277 674.731 479.724 674.731 480.212C674.731 480.702 674.804 481.151 674.95 481.559C675.099 481.967 675.326 482.293 675.631 482.538C675.939 482.784 676.327 482.906 676.794 482.906ZM684.23 484.169C683.746 484.169 683.309 484.08 682.918 483.901C682.527 483.718 682.217 483.455 681.988 483.11C681.763 482.765 681.65 482.343 681.65 481.842C681.65 481.411 681.733 481.057 681.899 480.778C682.064 480.5 682.288 480.28 682.57 480.117C682.852 479.955 683.166 479.832 683.514 479.749C683.862 479.666 684.217 479.603 684.578 479.56C685.036 479.507 685.407 479.464 685.692 479.431C685.977 479.395 686.184 479.337 686.313 479.257C686.443 479.178 686.507 479.048 686.507 478.869V478.835C686.507 478.4 686.385 478.064 686.139 477.825C685.898 477.587 685.536 477.467 685.056 477.467C684.555 477.467 684.161 477.578 683.872 477.8C683.587 478.019 683.39 478.263 683.281 478.531L681.884 478.213C682.05 477.749 682.291 477.375 682.61 477.089C682.931 476.801 683.301 476.592 683.718 476.463C684.136 476.33 684.575 476.264 685.036 476.264C685.341 476.264 685.664 476.301 686.005 476.374C686.35 476.443 686.671 476.572 686.97 476.761C687.271 476.95 687.518 477.22 687.71 477.572C687.903 477.92 687.999 478.372 687.999 478.929V484H686.547V482.956H686.487C686.391 483.148 686.247 483.337 686.055 483.523C685.863 483.708 685.616 483.862 685.314 483.985C685.013 484.108 684.651 484.169 684.23 484.169ZM684.554 482.976C684.965 482.976 685.316 482.895 685.608 482.732C685.902 482.57 686.126 482.358 686.279 482.096C686.434 481.831 686.512 481.547 686.512 481.246V480.261C686.459 480.314 686.357 480.364 686.204 480.411C686.055 480.454 685.884 480.492 685.692 480.525C685.5 480.555 685.313 480.583 685.13 480.609C684.948 480.633 684.795 480.652 684.673 480.669C684.384 480.705 684.121 480.767 683.882 480.853C683.647 480.939 683.458 481.063 683.316 481.226C683.176 481.385 683.107 481.597 683.107 481.862C683.107 482.23 683.243 482.509 683.514 482.697C683.786 482.883 684.133 482.976 684.554 482.976ZM692.837 484.149C692.221 484.149 691.671 483.992 691.187 483.677C690.706 483.359 690.328 482.906 690.053 482.32C689.782 481.73 689.646 481.022 689.646 480.197C689.646 479.371 689.783 478.665 690.058 478.079C690.337 477.492 690.718 477.043 691.202 476.732C691.686 476.42 692.234 476.264 692.847 476.264C693.321 476.264 693.703 476.344 693.991 476.503C694.283 476.659 694.508 476.841 694.667 477.05C694.829 477.259 694.955 477.442 695.045 477.602H695.134V473.818H696.621V484H695.169V482.812H695.045C694.955 482.974 694.826 483.16 694.657 483.369C694.491 483.577 694.263 483.76 693.971 483.915C693.679 484.071 693.301 484.149 692.837 484.149ZM693.166 482.881C693.593 482.881 693.954 482.769 694.249 482.543C694.548 482.315 694.773 481.998 694.926 481.594C695.081 481.189 695.159 480.719 695.159 480.182C695.159 479.652 695.083 479.187 694.93 478.79C694.778 478.392 694.554 478.082 694.259 477.86C693.964 477.638 693.6 477.527 693.166 477.527C692.718 477.527 692.345 477.643 692.047 477.875C691.749 478.107 691.523 478.424 691.371 478.825C691.222 479.226 691.147 479.678 691.147 480.182C691.147 480.692 691.223 481.151 691.376 481.559C691.528 481.967 691.754 482.29 692.052 482.528C692.354 482.764 692.725 482.881 693.166 482.881ZM558.315 506.864C558.093 506.864 557.891 506.845 557.708 506.809C557.526 506.776 557.39 506.739 557.301 506.7L557.659 505.482C557.93 505.554 558.172 505.586 558.384 505.576C558.597 505.566 558.784 505.487 558.946 505.337C559.112 505.188 559.258 504.945 559.384 504.607L559.568 504.099L556.774 496.364H558.365L560.299 502.29H560.378L562.312 496.364H563.908L560.761 505.019C560.615 505.417 560.429 505.753 560.204 506.028C559.979 506.307 559.71 506.516 559.399 506.655C559.087 506.794 558.726 506.864 558.315 506.864ZM568.262 504.154C567.546 504.154 566.921 503.99 566.388 503.662C565.854 503.334 565.44 502.875 565.145 502.285C564.85 501.695 564.702 501.005 564.702 500.217C564.702 499.424 564.85 498.732 565.145 498.138C565.44 497.545 565.854 497.085 566.388 496.756C566.921 496.428 567.546 496.264 568.262 496.264C568.978 496.264 569.602 496.428 570.136 496.756C570.67 497.085 571.084 497.545 571.379 498.138C571.674 498.732 571.821 499.424 571.821 500.217C571.821 501.005 571.674 501.695 571.379 502.285C571.084 502.875 570.67 503.334 570.136 503.662C569.602 503.99 568.978 504.154 568.262 504.154ZM568.267 502.906C568.731 502.906 569.115 502.784 569.42 502.538C569.725 502.293 569.95 501.967 570.096 501.559C570.245 501.151 570.32 500.702 570.32 500.212C570.32 499.724 570.245 499.277 570.096 498.869C569.95 498.458 569.725 498.129 569.42 497.88C569.115 497.631 568.731 497.507 568.267 497.507C567.799 497.507 567.412 497.631 567.103 497.88C566.799 498.129 566.571 498.458 566.422 498.869C566.276 499.277 566.204 499.724 566.204 500.212C566.204 500.702 566.276 501.151 566.422 501.559C566.571 501.967 566.799 502.293 567.103 502.538C567.412 502.784 567.799 502.906 568.267 502.906ZM578.318 500.833V496.364H579.81V504H578.348V502.678H578.268C578.093 503.085 577.811 503.425 577.423 503.697C577.039 503.965 576.56 504.099 575.986 504.099C575.496 504.099 575.062 503.992 574.684 503.776C574.309 503.558 574.014 503.234 573.799 502.807C573.587 502.379 573.481 501.851 573.481 501.221V496.364H574.967V501.042C574.967 501.562 575.111 501.977 575.4 502.285C575.688 502.593 576.063 502.747 576.523 502.747C576.802 502.747 577.079 502.678 577.354 502.538C577.632 502.399 577.862 502.189 578.045 501.907C578.23 501.625 578.321 501.267 578.318 500.833ZM581.807 504V496.364H583.244V497.577H583.323C583.462 497.166 583.708 496.843 584.059 496.607C584.414 496.369 584.815 496.249 585.262 496.249C585.355 496.249 585.464 496.253 585.59 496.259C585.72 496.266 585.821 496.274 585.894 496.284V497.706C585.834 497.689 585.728 497.671 585.575 497.651C585.423 497.628 585.27 497.616 585.118 497.616C584.767 497.616 584.453 497.691 584.178 497.84C583.907 497.986 583.691 498.19 583.532 498.452C583.373 498.71 583.293 499.005 583.293 499.337V504H581.807ZM590.885 504V496.364H592.322V497.577H592.401C592.541 497.166 592.786 496.843 593.137 496.607C593.492 496.369 593.893 496.249 594.34 496.249C594.433 496.249 594.542 496.253 594.668 496.259C594.798 496.266 594.899 496.274 594.972 496.284V497.706C594.912 497.689 594.806 497.671 594.653 497.651C594.501 497.628 594.349 497.616 594.196 497.616C593.845 497.616 593.532 497.691 593.256 497.84C592.985 497.986 592.769 498.19 592.61 498.452C592.451 498.71 592.372 499.005 592.372 499.337V504H590.885ZM599.276 504.154C598.523 504.154 597.876 503.993 597.332 503.672C596.792 503.347 596.374 502.891 596.079 502.305C595.787 501.715 595.642 501.024 595.642 500.232C595.642 499.449 595.787 498.76 596.079 498.163C596.374 497.567 596.785 497.101 597.312 496.766C597.842 496.432 598.462 496.264 599.171 496.264C599.602 496.264 600.02 496.335 600.424 496.478C600.829 496.621 601.192 496.844 601.513 497.149C601.835 497.454 602.088 497.85 602.274 498.337C602.459 498.821 602.552 499.41 602.552 500.102V500.629H596.482V499.516H601.095C601.095 499.125 601.016 498.778 600.857 498.477C600.698 498.172 600.474 497.931 600.186 497.756C599.901 497.58 599.566 497.492 599.181 497.492C598.764 497.492 598.399 497.595 598.088 497.8C597.779 498.003 597.541 498.268 597.372 498.596C597.206 498.921 597.123 499.274 597.123 499.655V500.525C597.123 501.035 597.213 501.469 597.392 501.827C597.574 502.185 597.827 502.459 598.152 502.648C598.477 502.833 598.857 502.926 599.291 502.926C599.572 502.926 599.829 502.886 600.061 502.807C600.293 502.724 600.494 502.601 600.663 502.439C600.832 502.277 600.961 502.076 601.051 501.837L602.458 502.091C602.345 502.505 602.143 502.868 601.851 503.18C601.563 503.488 601.2 503.728 600.762 503.901C600.328 504.07 599.833 504.154 599.276 504.154ZM609.924 498.228L608.576 498.467C608.52 498.294 608.431 498.13 608.308 497.974C608.189 497.819 608.026 497.691 607.821 497.592C607.615 497.492 607.358 497.442 607.05 497.442C606.629 497.442 606.278 497.537 605.996 497.726C605.714 497.911 605.574 498.152 605.574 498.447C605.574 498.702 605.668 498.907 605.857 499.063C606.046 499.219 606.351 499.347 606.772 499.446L607.985 499.724C608.687 499.887 609.211 500.137 609.556 500.475C609.901 500.813 610.073 501.252 610.073 501.793C610.073 502.25 609.94 502.658 609.675 503.016C609.413 503.37 609.047 503.649 608.576 503.851C608.109 504.053 607.567 504.154 606.951 504.154C606.096 504.154 605.398 503.972 604.858 503.607C604.317 503.239 603.986 502.717 603.863 502.041L605.3 501.822C605.39 502.197 605.574 502.48 605.852 502.673C606.13 502.862 606.493 502.956 606.941 502.956C607.428 502.956 607.817 502.855 608.109 502.653C608.401 502.447 608.547 502.197 608.547 501.902C608.547 501.663 608.457 501.463 608.278 501.3C608.102 501.138 607.832 501.015 607.468 500.933L606.175 500.649C605.463 500.487 604.936 500.228 604.594 499.874C604.256 499.519 604.087 499.07 604.087 498.526C604.087 498.076 604.213 497.681 604.465 497.343C604.717 497.005 605.065 496.741 605.509 496.553C605.953 496.36 606.462 496.264 607.035 496.264C607.861 496.264 608.51 496.443 608.984 496.801C609.458 497.156 609.771 497.631 609.924 498.228ZM616.545 500.833V496.364H618.036V504H616.574V502.678H616.495C616.319 503.085 616.038 503.425 615.65 503.697C615.265 503.965 614.786 504.099 614.213 504.099C613.722 504.099 613.288 503.992 612.91 503.776C612.536 503.558 612.241 503.234 612.025 502.807C611.813 502.379 611.707 501.851 611.707 501.221V496.364H613.194V501.042C613.194 501.562 613.338 501.977 613.626 502.285C613.915 502.593 614.289 502.747 614.75 502.747C615.028 502.747 615.305 502.678 615.58 502.538C615.859 502.399 616.089 502.189 616.271 501.907C616.457 501.625 616.548 501.267 616.545 500.833ZM620.033 504V496.364H621.46V497.607H621.555C621.714 497.186 621.974 496.857 622.335 496.622C622.697 496.384 623.129 496.264 623.633 496.264C624.143 496.264 624.571 496.384 624.916 496.622C625.264 496.861 625.52 497.189 625.686 497.607H625.766C625.948 497.199 626.238 496.874 626.636 496.632C627.033 496.387 627.507 496.264 628.058 496.264C628.75 496.264 629.315 496.481 629.753 496.915C630.194 497.35 630.414 498.004 630.414 498.879V504H628.928V499.018C628.928 498.501 628.787 498.127 628.505 497.895C628.223 497.663 627.887 497.547 627.496 497.547C627.012 497.547 626.636 497.696 626.367 497.994C626.099 498.289 625.965 498.669 625.965 499.133V504H624.483V498.924C624.483 498.51 624.354 498.177 624.095 497.925C623.837 497.673 623.5 497.547 623.086 497.547C622.804 497.547 622.544 497.621 622.305 497.771C622.07 497.916 621.88 498.12 621.734 498.382C621.591 498.644 621.52 498.947 621.52 499.292V504H620.033ZM635.698 504.154C634.945 504.154 634.297 503.993 633.754 503.672C633.214 503.347 632.796 502.891 632.501 502.305C632.209 501.715 632.063 501.024 632.063 500.232C632.063 499.449 632.209 498.76 632.501 498.163C632.796 497.567 633.207 497.101 633.734 496.766C634.264 496.432 634.884 496.264 635.593 496.264C636.024 496.264 636.442 496.335 636.846 496.478C637.251 496.621 637.613 496.844 637.935 497.149C638.256 497.454 638.51 497.85 638.696 498.337C638.881 498.821 638.974 499.41 638.974 500.102V500.629H632.904V499.516H637.517C637.517 499.125 637.438 498.778 637.279 498.477C637.12 498.172 636.896 497.931 636.608 497.756C636.322 497.58 635.988 497.492 635.603 497.492C635.186 497.492 634.821 497.595 634.509 497.8C634.201 498.003 633.963 498.268 633.794 498.596C633.628 498.921 633.545 499.274 633.545 499.655V500.525C633.545 501.035 633.634 501.469 633.813 501.827C633.996 502.185 634.249 502.459 634.574 502.648C634.899 502.833 635.278 502.926 635.713 502.926C635.994 502.926 636.251 502.886 636.483 502.807C636.715 502.724 636.916 502.601 637.085 502.439C637.254 502.277 637.383 502.076 637.473 501.837L638.88 502.091C638.767 502.505 638.565 502.868 638.273 503.18C637.985 503.488 637.622 503.728 637.184 503.901C636.75 504.07 636.255 504.154 635.698 504.154Z" fill="#3E1C00"/>
<path d="M589.886 506.784H639.63V507.739H589.886V506.784Z" fill="#3E1C00"/>
<rect x="395" y="702" width="406" height="84" rx="20" fill="#FAF9F7"/>
<g filter="url(#filter2_dd_84_764)">
<rect x="395" y="702" width="406" height="84" rx="20" fill="white"/>
<path d="M409.784 715.537V732.281H408.79V715.537H409.784Z" fill="#020202"/>
<path d="M412.813 729V718.818H416.253C417.052 718.818 417.705 718.962 418.212 719.251C418.723 719.536 419.1 719.922 419.346 720.409C419.591 720.896 419.714 721.44 419.714 722.04C419.714 722.64 419.591 723.185 419.346 723.675C419.104 724.166 418.729 724.557 418.222 724.849C417.715 725.137 417.065 725.281 416.273 725.281H413.807V724.188H416.233C416.78 724.188 417.22 724.093 417.551 723.904C417.882 723.715 418.123 723.46 418.272 723.138C418.424 722.814 418.501 722.447 418.501 722.04C418.501 721.632 418.424 721.268 418.272 720.946C418.123 720.625 417.881 720.373 417.546 720.19C417.211 720.005 416.767 719.912 416.214 719.912H414.046V729H412.813ZM421.541 729V721.364H422.674V722.517H422.754C422.893 722.139 423.145 721.833 423.509 721.597C423.874 721.362 424.285 721.244 424.742 721.244C424.829 721.244 424.936 721.246 425.066 721.249C425.195 721.253 425.293 721.258 425.359 721.264V722.457C425.319 722.447 425.228 722.433 425.085 722.413C424.946 722.389 424.799 722.378 424.643 722.378C424.272 722.378 423.94 722.456 423.649 722.612C423.36 722.764 423.132 722.976 422.963 723.248C422.797 723.516 422.714 723.823 422.714 724.168V729H421.541ZM429.619 729.159C428.93 729.159 428.325 728.995 427.805 728.667C427.288 728.339 426.883 727.88 426.592 727.29C426.303 726.7 426.159 726.01 426.159 725.222C426.159 724.426 426.303 723.732 426.592 723.138C426.883 722.545 427.288 722.085 427.805 721.756C428.325 721.428 428.93 721.264 429.619 721.264C430.309 721.264 430.912 721.428 431.429 721.756C431.95 722.085 432.354 722.545 432.642 723.138C432.934 723.732 433.08 724.426 433.08 725.222C433.08 726.01 432.934 726.7 432.642 727.29C432.354 727.88 431.95 728.339 431.429 728.667C430.912 728.995 430.309 729.159 429.619 729.159ZM429.619 728.105C430.143 728.105 430.574 727.971 430.912 727.702C431.25 727.434 431.5 727.081 431.663 726.643C431.825 726.206 431.906 725.732 431.906 725.222C431.906 724.711 431.825 724.236 431.663 723.795C431.5 723.354 431.25 722.998 430.912 722.726C430.574 722.454 430.143 722.318 429.619 722.318C429.096 722.318 428.665 722.454 428.327 722.726C427.989 722.998 427.739 723.354 427.576 723.795C427.414 724.236 427.333 724.711 427.333 725.222C427.333 725.732 427.414 726.206 427.576 726.643C427.739 727.081 427.989 727.434 428.327 727.702C428.665 727.971 429.096 728.105 429.619 728.105ZM440.842 721.364L438.018 729H436.825L434.001 721.364H435.273L437.381 727.449H437.461L439.569 721.364H440.842ZM442.39 729V721.364H443.564V729H442.39ZM442.987 720.091C442.758 720.091 442.561 720.013 442.395 719.857C442.233 719.701 442.152 719.514 442.152 719.295C442.152 719.077 442.233 718.889 442.395 718.734C442.561 718.578 442.758 718.5 442.987 718.5C443.216 718.5 443.411 718.578 443.574 718.734C443.739 718.889 443.822 719.077 443.822 719.295C443.822 719.514 443.739 719.701 443.574 719.857C443.411 720.013 443.216 720.091 442.987 720.091ZM448.596 729.159C447.96 729.159 447.398 728.998 446.911 728.677C446.423 728.352 446.042 727.895 445.767 727.305C445.492 726.711 445.355 726.01 445.355 725.202C445.355 724.4 445.492 723.704 445.767 723.114C446.042 722.524 446.425 722.068 446.916 721.746C447.406 721.425 447.973 721.264 448.616 721.264C449.113 721.264 449.506 721.347 449.794 721.513C450.086 721.675 450.308 721.861 450.46 722.07C450.616 722.275 450.737 722.444 450.823 722.577H450.923V718.818H452.096V729H450.963V727.827H450.823C450.737 727.966 450.615 728.142 450.455 728.354C450.296 728.562 450.069 728.75 449.774 728.915C449.479 729.078 449.087 729.159 448.596 729.159ZM448.755 728.105C449.226 728.105 449.624 727.982 449.948 727.737C450.273 727.489 450.52 727.146 450.689 726.708C450.858 726.267 450.943 725.759 450.943 725.182C450.943 724.612 450.86 724.113 450.694 723.685C450.528 723.254 450.283 722.92 449.958 722.681C449.633 722.439 449.232 722.318 448.755 722.318C448.258 722.318 447.844 722.446 447.512 722.701C447.184 722.953 446.937 723.296 446.771 723.73C446.609 724.161 446.528 724.645 446.528 725.182C446.528 725.725 446.611 726.219 446.776 726.663C446.945 727.104 447.194 727.455 447.522 727.717C447.854 727.976 448.265 728.105 448.755 728.105ZM457.61 729.159C456.874 729.159 456.239 728.997 455.705 728.672C455.175 728.344 454.766 727.886 454.477 727.3C454.192 726.71 454.05 726.024 454.05 725.241C454.05 724.459 454.192 723.77 454.477 723.173C454.766 722.573 455.167 722.106 455.681 721.771C456.198 721.433 456.801 721.264 457.49 721.264C457.888 721.264 458.281 721.33 458.669 721.463C459.056 721.596 459.409 721.811 459.727 722.109C460.046 722.404 460.299 722.795 460.488 723.283C460.677 723.77 460.771 724.37 460.771 725.082V725.58H454.885V724.565H459.578C459.578 724.134 459.492 723.75 459.32 723.412C459.151 723.074 458.909 722.807 458.594 722.612C458.282 722.416 457.914 722.318 457.49 722.318C457.023 722.318 456.619 722.434 456.277 722.666C455.939 722.895 455.679 723.193 455.497 723.561C455.314 723.929 455.223 724.323 455.223 724.744V725.42C455.223 725.997 455.323 726.486 455.521 726.887C455.724 727.285 456.004 727.588 456.362 727.797C456.72 728.002 457.136 728.105 457.61 728.105C457.918 728.105 458.196 728.062 458.445 727.976C458.697 727.886 458.914 727.754 459.096 727.578C459.278 727.399 459.419 727.177 459.519 726.912L460.652 727.23C460.533 727.615 460.332 727.953 460.051 728.244C459.769 728.533 459.421 728.758 459.007 728.92C458.592 729.08 458.127 729.159 457.61 729.159ZM469.377 729.159C468.741 729.159 468.179 728.998 467.692 728.677C467.205 728.352 466.824 727.895 466.548 727.305C466.273 726.711 466.136 726.01 466.136 725.202C466.136 724.4 466.273 723.704 466.548 723.114C466.824 722.524 467.206 722.068 467.697 721.746C468.187 721.425 468.754 721.264 469.397 721.264C469.894 721.264 470.287 721.347 470.575 721.513C470.867 721.675 471.089 721.861 471.242 722.07C471.397 722.275 471.518 722.444 471.605 722.577H471.704V718.818H472.877V729H471.744V727.827H471.605C471.518 727.966 471.396 728.142 471.237 728.354C471.078 728.562 470.851 728.75 470.556 728.915C470.261 729.078 469.868 729.159 469.377 729.159ZM469.536 728.105C470.007 728.105 470.405 727.982 470.73 727.737C471.054 727.489 471.301 727.146 471.47 726.708C471.639 726.267 471.724 725.759 471.724 725.182C471.724 724.612 471.641 724.113 471.475 723.685C471.31 723.254 471.064 722.92 470.74 722.681C470.415 722.439 470.014 722.318 469.536 722.318C469.039 722.318 468.625 722.446 468.294 722.701C467.965 722.953 467.718 723.296 467.553 723.73C467.39 724.161 467.309 724.645 467.309 725.182C467.309 725.725 467.392 726.219 467.558 726.663C467.727 727.104 467.975 727.455 468.303 727.717C468.635 727.976 469.046 728.105 469.536 728.105ZM478.391 729.159C477.655 729.159 477.02 728.997 476.487 728.672C475.956 728.344 475.547 727.886 475.259 727.3C474.974 726.71 474.831 726.024 474.831 725.241C474.831 724.459 474.974 723.77 475.259 723.173C475.547 722.573 475.948 722.106 476.462 721.771C476.979 721.433 477.582 721.264 478.271 721.264C478.669 721.264 479.062 721.33 479.45 721.463C479.838 721.596 480.191 721.811 480.509 722.109C480.827 722.404 481.08 722.795 481.269 723.283C481.458 723.77 481.553 724.37 481.553 725.082V725.58H475.666V724.565H480.36C480.36 724.134 480.273 723.75 480.101 723.412C479.932 723.074 479.69 722.807 479.375 722.612C479.064 722.416 478.696 722.318 478.271 722.318C477.804 722.318 477.4 722.434 477.058 722.666C476.72 722.895 476.46 723.193 476.278 723.561C476.096 723.929 476.004 724.323 476.004 724.744V725.42C476.004 725.997 476.104 726.486 476.303 726.887C476.505 727.285 476.785 727.588 477.143 727.797C477.501 728.002 477.917 728.105 478.391 728.105C478.699 728.105 478.977 728.062 479.226 727.976C479.478 727.886 479.695 727.754 479.877 727.578C480.06 727.399 480.2 727.177 480.3 726.912L481.433 727.23C481.314 727.615 481.114 727.953 480.832 728.244C480.55 728.533 480.202 728.758 479.788 728.92C479.374 729.08 478.908 729.159 478.391 729.159ZM486.659 721.364V722.358H482.701V721.364H486.659ZM483.855 719.534H485.028V726.812C485.028 727.144 485.076 727.393 485.172 727.558C485.271 727.721 485.397 727.83 485.55 727.886C485.706 727.939 485.87 727.966 486.042 727.966C486.171 727.966 486.277 727.959 486.36 727.946C486.443 727.929 486.509 727.916 486.559 727.906L486.798 728.96C486.718 728.99 486.607 729.02 486.465 729.05C486.322 729.083 486.142 729.099 485.923 729.099C485.591 729.099 485.267 729.028 484.948 728.886C484.633 728.743 484.372 728.526 484.163 728.234C483.957 727.943 483.855 727.575 483.855 727.131V719.534ZM490.671 729.179C490.187 729.179 489.748 729.088 489.353 728.906C488.959 728.72 488.646 728.453 488.414 728.105C488.182 727.754 488.066 727.33 488.066 726.832C488.066 726.395 488.152 726.04 488.324 725.768C488.496 725.493 488.727 725.278 489.015 725.122C489.303 724.966 489.622 724.85 489.97 724.774C490.321 724.695 490.674 724.632 491.029 724.585C491.493 724.526 491.869 724.481 492.157 724.451C492.449 724.418 492.661 724.363 492.794 724.287C492.929 724.211 492.997 724.078 492.997 723.889V723.849C492.997 723.359 492.863 722.978 492.595 722.706C492.329 722.434 491.927 722.298 491.387 722.298C490.826 722.298 490.387 722.421 490.069 722.666C489.751 722.911 489.527 723.173 489.398 723.452L488.284 723.054C488.483 722.59 488.748 722.229 489.08 721.97C489.414 721.708 489.779 721.526 490.173 721.423C490.571 721.317 490.962 721.264 491.347 721.264C491.592 721.264 491.874 721.294 492.192 721.354C492.513 721.41 492.823 721.528 493.122 721.707C493.423 721.886 493.673 722.156 493.872 722.517C494.071 722.878 494.171 723.362 494.171 723.969V729H492.997V727.966H492.938C492.858 728.132 492.726 728.309 492.54 728.498C492.354 728.687 492.107 728.848 491.799 728.98C491.491 729.113 491.115 729.179 490.671 729.179ZM490.85 728.125C491.314 728.125 491.705 728.034 492.023 727.852C492.344 727.669 492.586 727.434 492.749 727.146C492.914 726.857 492.997 726.554 492.997 726.236V725.162C492.948 725.222 492.838 725.276 492.669 725.326C492.503 725.372 492.311 725.414 492.093 725.45C491.877 725.483 491.667 725.513 491.461 725.54C491.259 725.563 491.095 725.583 490.969 725.599C490.664 725.639 490.379 725.704 490.114 725.793C489.852 725.879 489.64 726.01 489.477 726.186C489.318 726.358 489.239 726.594 489.239 726.892C489.239 727.3 489.39 727.608 489.691 727.817C489.996 728.022 490.382 728.125 490.85 728.125ZM496.312 729V721.364H497.485V729H496.312ZM496.909 720.091C496.68 720.091 496.483 720.013 496.317 719.857C496.155 719.701 496.074 719.514 496.074 719.295C496.074 719.077 496.155 718.889 496.317 718.734C496.483 718.578 496.68 718.5 496.909 718.5C497.137 718.5 497.333 718.578 497.495 718.734C497.661 718.889 497.744 719.077 497.744 719.295C497.744 719.514 497.661 719.701 497.495 719.857C497.333 720.013 497.137 720.091 496.909 720.091ZM500.808 718.818V729H499.634V718.818H500.808ZM508.366 723.074L507.312 723.372C507.246 723.196 507.148 723.026 507.018 722.86C506.893 722.691 506.72 722.552 506.501 722.442C506.283 722.333 506.003 722.278 505.661 722.278C505.194 722.278 504.804 722.386 504.493 722.602C504.185 722.814 504.031 723.084 504.031 723.412C504.031 723.704 504.137 723.934 504.349 724.103C504.561 724.272 504.892 724.413 505.343 724.526L506.477 724.804C507.159 724.97 507.668 725.223 508.003 725.565C508.338 725.903 508.505 726.339 508.505 726.872C508.505 727.31 508.379 727.701 508.127 728.045C507.879 728.39 507.531 728.662 507.083 728.861C506.636 729.06 506.115 729.159 505.522 729.159C504.743 729.159 504.098 728.99 503.588 728.652C503.078 728.314 502.754 727.82 502.619 727.17L503.732 726.892C503.838 727.303 504.039 727.611 504.334 727.817C504.632 728.022 505.022 728.125 505.502 728.125C506.049 728.125 506.483 728.009 506.805 727.777C507.129 727.542 507.292 727.26 507.292 726.932C507.292 726.667 507.199 726.445 507.013 726.266C506.828 726.083 506.543 725.947 506.158 725.858L504.886 725.56C504.186 725.394 503.673 725.137 503.344 724.789C503.02 724.438 502.857 723.999 502.857 723.472C502.857 723.041 502.978 722.66 503.22 722.328C503.465 721.997 503.799 721.737 504.219 721.548C504.644 721.359 505.124 721.264 505.661 721.264C506.417 721.264 507.01 721.43 507.441 721.761C507.875 722.093 508.183 722.53 508.366 723.074ZM517.609 721.364V722.358H513.493V721.364H517.609ZM514.726 729V720.31C514.726 719.872 514.828 719.508 515.034 719.216C515.239 718.924 515.506 718.705 515.834 718.56C516.162 718.414 516.509 718.341 516.873 718.341C517.162 718.341 517.397 718.364 517.579 718.411C517.762 718.457 517.898 718.5 517.987 718.54L517.649 719.554C517.589 719.534 517.506 719.509 517.4 719.479C517.298 719.45 517.162 719.435 516.993 719.435C516.605 719.435 516.325 719.532 516.153 719.728C515.983 719.924 515.899 720.21 515.899 720.588V729H514.726ZM522.041 729.159C521.352 729.159 520.747 728.995 520.227 728.667C519.71 728.339 519.305 727.88 519.014 727.29C518.725 726.7 518.581 726.01 518.581 725.222C518.581 724.426 518.725 723.732 519.014 723.138C519.305 722.545 519.71 722.085 520.227 721.756C520.747 721.428 521.352 721.264 522.041 721.264C522.731 721.264 523.334 721.428 523.851 721.756C524.371 722.085 524.776 722.545 525.064 723.138C525.356 723.732 525.502 724.426 525.502 725.222C525.502 726.01 525.356 726.7 525.064 727.29C524.776 727.88 524.371 728.339 523.851 728.667C523.334 728.995 522.731 729.159 522.041 729.159ZM522.041 728.105C522.565 728.105 522.996 727.971 523.334 727.702C523.672 727.434 523.922 727.081 524.085 726.643C524.247 726.206 524.328 725.732 524.328 725.222C524.328 724.711 524.247 724.236 524.085 723.795C523.922 723.354 523.672 722.998 523.334 722.726C522.996 722.454 522.565 722.318 522.041 722.318C521.518 722.318 521.087 722.454 520.749 722.726C520.411 722.998 520.16 723.354 519.998 723.795C519.836 724.236 519.754 724.711 519.754 725.222C519.754 725.732 519.836 726.206 519.998 726.643C520.16 727.081 520.411 727.434 520.749 727.702C521.087 727.971 521.518 728.105 522.041 728.105ZM527.293 729V721.364H528.426V722.517H528.506C528.645 722.139 528.897 721.833 529.261 721.597C529.626 721.362 530.037 721.244 530.494 721.244C530.58 721.244 530.688 721.246 530.817 721.249C530.947 721.253 531.045 721.258 531.111 721.264V722.457C531.071 722.447 530.98 722.433 530.837 722.413C530.698 722.389 530.551 722.378 530.395 722.378C530.024 722.378 529.692 722.456 529.401 722.612C529.112 722.764 528.884 722.976 528.714 723.248C528.549 723.516 528.466 723.823 528.466 724.168V729H527.293ZM537.195 731.864C536.996 731.864 536.819 731.847 536.663 731.814C536.507 731.784 536.399 731.754 536.34 731.724L536.638 730.69C536.923 730.763 537.175 730.79 537.394 730.77C537.612 730.75 537.806 730.652 537.975 730.477C538.148 730.304 538.305 730.024 538.448 729.636L538.666 729.04L535.843 721.364H537.115L539.223 727.449H539.303L541.411 721.364H542.683L539.442 730.114C539.296 730.508 539.115 730.835 538.9 731.093C538.685 731.355 538.434 731.549 538.149 731.675C537.868 731.801 537.549 731.864 537.195 731.864ZM547.061 729.159C546.372 729.159 545.767 728.995 545.246 728.667C544.729 728.339 544.325 727.88 544.033 727.29C543.745 726.7 543.601 726.01 543.601 725.222C543.601 724.426 543.745 723.732 544.033 723.138C544.325 722.545 544.729 722.085 545.246 721.756C545.767 721.428 546.372 721.264 547.061 721.264C547.75 721.264 548.354 721.428 548.871 721.756C549.391 722.085 549.795 722.545 550.084 723.138C550.375 723.732 550.521 724.426 550.521 725.222C550.521 726.01 550.375 726.7 550.084 727.29C549.795 727.88 549.391 728.339 548.871 728.667C548.354 728.995 547.75 729.159 547.061 729.159ZM547.061 728.105C547.585 728.105 548.015 727.971 548.354 727.702C548.692 727.434 548.942 727.081 549.104 726.643C549.267 726.206 549.348 725.732 549.348 725.222C549.348 724.711 549.267 724.236 549.104 723.795C548.942 723.354 548.692 722.998 548.354 722.726C548.015 722.454 547.585 722.318 547.061 722.318C546.537 722.318 546.106 722.454 545.768 722.726C545.43 722.998 545.18 723.354 545.018 723.795C544.855 724.236 544.774 724.711 544.774 725.222C544.774 725.732 544.855 726.206 545.018 726.643C545.18 727.081 545.43 727.434 545.768 727.702C546.106 727.971 546.537 728.105 547.061 728.105ZM557.125 725.878V721.364H558.298V729H557.125V727.707H557.045C556.866 728.095 556.588 728.425 556.21 728.697C555.832 728.965 555.355 729.099 554.778 729.099C554.301 729.099 553.877 728.995 553.505 728.786C553.134 728.574 552.842 728.256 552.63 727.832C552.418 727.404 552.312 726.866 552.312 726.216V721.364H553.485V726.136C553.485 726.693 553.641 727.137 553.953 727.469C554.268 727.8 554.669 727.966 555.156 727.966C555.448 727.966 555.744 727.891 556.046 727.742C556.351 727.593 556.606 727.364 556.811 727.056C557.02 726.748 557.125 726.355 557.125 725.878ZM560.447 729V721.364H561.58V722.517H561.66C561.799 722.139 562.051 721.833 562.416 721.597C562.78 721.362 563.191 721.244 563.649 721.244C563.735 721.244 563.843 721.246 563.972 721.249C564.101 721.253 564.199 721.258 564.265 721.264V722.457C564.225 722.447 564.134 722.433 563.992 722.413C563.852 722.389 563.705 722.378 563.549 722.378C563.178 722.378 562.847 722.456 562.555 722.612C562.267 722.764 562.038 722.976 561.869 723.248C561.703 723.516 561.62 723.823 561.62 724.168V729H560.447ZM577.946 722H576.713C576.64 721.645 576.512 721.334 576.33 721.065C576.151 720.797 575.932 720.571 575.674 720.389C575.418 720.204 575.135 720.064 574.824 719.972C574.512 719.879 574.187 719.832 573.849 719.832C573.233 719.832 572.674 719.988 572.174 720.3C571.676 720.611 571.28 721.07 570.985 721.677C570.694 722.283 570.548 723.027 570.548 723.909C570.548 724.791 570.694 725.535 570.985 726.141C571.28 726.748 571.676 727.207 572.174 727.518C572.674 727.83 573.233 727.986 573.849 727.986C574.187 727.986 574.512 727.939 574.824 727.847C575.135 727.754 575.418 727.616 575.674 727.434C575.932 727.248 576.151 727.021 576.33 726.753C576.512 726.481 576.64 726.17 576.713 725.818H577.946C577.853 726.339 577.684 726.804 577.439 727.215C577.193 727.626 576.888 727.976 576.524 728.264C576.159 728.549 575.75 728.766 575.296 728.915C574.845 729.065 574.363 729.139 573.849 729.139C572.981 729.139 572.208 728.927 571.532 728.503C570.856 728.079 570.324 727.475 569.936 726.693C569.549 725.911 569.355 724.983 569.355 723.909C569.355 722.835 569.549 721.907 569.936 721.125C570.324 720.343 570.856 719.74 571.532 719.315C572.208 718.891 572.981 718.679 573.849 718.679C574.363 718.679 574.845 718.754 575.296 718.903C575.75 719.052 576.159 719.271 576.524 719.559C576.888 719.844 577.193 720.192 577.439 720.603C577.684 721.011 577.853 721.476 577.946 722ZM580.356 718.818L583.378 727.389H583.498L586.52 718.818H587.813L584.074 729H582.802L579.063 718.818H580.356Z" fill="#D6D6D6"/>
<path d="M424.333 755L417.322 762.155C417.009 762.468 416.833 762.892 416.833 763.334C416.833 763.776 417.009 764.2 417.322 764.512C417.634 764.825 418.058 765.001 418.5 765.001C418.942 765.001 419.366 764.825 419.679 764.512L426.691 757.357C427.316 756.732 427.667 755.884 427.667 755C427.667 754.116 427.316 753.268 426.691 752.643C426.066 752.018 425.218 751.667 424.334 751.667C423.45 751.667 422.602 752.018 421.977 752.643L414.994 759.769C414.524 760.232 414.149 760.784 413.893 761.392C413.637 762 413.503 762.653 413.501 763.313C413.498 763.973 413.626 764.627 413.877 765.237C414.129 765.848 414.498 766.402 414.965 766.869C415.432 767.336 415.986 767.705 416.597 767.957C417.207 768.208 417.861 768.336 418.521 768.333C419.181 768.331 419.834 768.197 420.442 767.941C421.051 767.685 421.602 767.31 422.065 766.84L429.047 759.714" stroke="#020202" stroke-linecap="round" stroke-linejoin="round"/>
<rect x="761" y="746" width="28" height="28" rx="14" fill="#3E1C00"/>
<path d="M781.067 759.192C781.009 759.25 780.94 759.296 780.864 759.328C780.789 759.359 780.707 759.375 780.625 759.375C780.543 759.375 780.462 759.359 780.386 759.328C780.31 759.296 780.241 759.25 780.183 759.192L775.625 754.634V766.875C775.625 767.041 775.559 767.2 775.442 767.317C775.325 767.434 775.166 767.5 775 767.5C774.834 767.5 774.675 767.434 774.558 767.317C774.441 767.2 774.375 767.041 774.375 766.875V754.634L769.817 759.192C769.7 759.309 769.541 759.375 769.375 759.375C769.209 759.375 769.05 759.309 768.933 759.192C768.816 759.075 768.75 758.916 768.75 758.75C768.75 758.584 768.816 758.425 768.933 758.308L774.558 752.683C774.616 752.625 774.685 752.579 774.761 752.547C774.837 752.516 774.918 752.5 775 752.5C775.082 752.5 775.164 752.516 775.239 752.547C775.315 752.579 775.384 752.625 775.442 752.683L781.067 758.308C781.125 758.366 781.172 758.435 781.203 758.511C781.234 758.587 781.251 758.668 781.251 758.75C781.251 758.832 781.234 758.913 781.203 758.989C781.172 759.065 781.125 759.134 781.067 759.192Z" fill="white"/>
<path d="M558.038 762.381V761.124L561.741 755.273H562.789V757.062H562.15L559.657 761.013V761.081H564.826V762.381H558.038ZM562.201 764V761.997L562.218 761.435V755.273H563.71V764H562.201ZM569.309 764V757.455H570.281V758.443H570.349C570.468 758.119 570.684 757.857 570.997 757.655C571.309 757.453 571.661 757.352 572.053 757.352C572.127 757.352 572.22 757.354 572.33 757.357C572.441 757.359 572.525 757.364 572.582 757.369V758.392C572.548 758.384 572.47 758.371 572.347 758.354C572.228 758.334 572.102 758.324 571.968 758.324C571.65 758.324 571.366 758.391 571.116 758.524C570.869 758.655 570.673 758.837 570.528 759.07C570.386 759.3 570.315 759.562 570.315 759.858V764H569.309ZM576.319 764.136C575.688 764.136 575.144 763.997 574.687 763.719C574.232 763.438 573.882 763.045 573.634 762.543C573.39 762.037 573.268 761.449 573.268 760.778C573.268 760.108 573.39 759.517 573.634 759.006C573.882 758.491 574.225 758.091 574.666 757.804C575.109 757.514 575.626 757.369 576.217 757.369C576.558 757.369 576.894 757.426 577.227 757.54C577.559 757.653 577.862 757.838 578.134 758.094C578.407 758.347 578.624 758.682 578.786 759.099C578.948 759.517 579.029 760.031 579.029 760.642V761.068H573.984V760.199H578.007C578.007 759.83 577.933 759.5 577.785 759.21C577.64 758.92 577.433 758.692 577.163 758.524C576.896 758.357 576.58 758.273 576.217 758.273C575.816 758.273 575.47 758.372 575.177 758.571C574.887 758.767 574.664 759.023 574.508 759.338C574.352 759.653 574.274 759.991 574.274 760.352V760.932C574.274 761.426 574.359 761.845 574.529 762.189C574.703 762.53 574.943 762.79 575.249 762.969C575.556 763.145 575.913 763.233 576.319 763.233C576.583 763.233 576.822 763.196 577.035 763.122C577.251 763.045 577.437 762.932 577.593 762.781C577.749 762.628 577.87 762.437 577.955 762.21L578.927 762.483C578.825 762.812 578.653 763.102 578.411 763.352C578.17 763.599 577.872 763.793 577.517 763.932C577.161 764.068 576.762 764.136 576.319 764.136ZM585.025 766.455V762.994H584.94C584.866 763.114 584.761 763.264 584.624 763.446C584.488 763.625 584.294 763.786 584.041 763.928C583.788 764.067 583.451 764.136 583.031 764.136C582.485 764.136 582.004 763.999 581.586 763.723C581.169 763.445 580.842 763.053 580.606 762.547C580.37 762.038 580.252 761.438 580.252 760.744C580.252 760.057 580.37 759.46 580.606 758.955C580.842 758.449 581.17 758.058 581.59 757.783C582.011 757.507 582.497 757.369 583.048 757.369C583.474 757.369 583.811 757.44 584.058 757.582C584.308 757.722 584.498 757.881 584.629 758.06C584.762 758.236 584.866 758.381 584.94 758.494H585.059V757.455H586.031V766.455H585.025ZM583.167 763.233C583.57 763.233 583.911 763.128 584.19 762.918C584.468 762.705 584.68 762.411 584.825 762.036C584.97 761.658 585.042 761.222 585.042 760.727C585.042 760.239 584.971 759.811 584.829 759.445C584.687 759.075 584.477 758.788 584.198 758.584C583.92 758.376 583.576 758.273 583.167 758.273C582.741 758.273 582.386 758.382 582.102 758.601C581.82 758.817 581.609 759.111 581.467 759.483C581.328 759.852 581.258 760.267 581.258 760.727C581.258 761.193 581.329 761.616 581.471 761.997C581.616 762.375 581.829 762.676 582.11 762.901C582.394 763.122 582.747 763.233 583.167 763.233ZM591.997 761.324V757.455H593.002V764H591.997V762.892H591.928C591.775 763.224 591.536 763.507 591.213 763.74C590.889 763.97 590.48 764.085 589.985 764.085C589.576 764.085 589.213 763.996 588.894 763.817C588.576 763.635 588.326 763.362 588.144 762.999C587.963 762.632 587.872 762.17 587.872 761.614V757.455H588.877V761.545C588.877 762.023 589.011 762.403 589.278 762.688C589.548 762.972 589.892 763.114 590.309 763.114C590.559 763.114 590.813 763.05 591.072 762.922C591.333 762.794 591.552 762.598 591.728 762.334C591.907 762.07 591.997 761.733 591.997 761.324ZM597.589 764.136C596.958 764.136 596.414 763.997 595.956 763.719C595.502 763.438 595.151 763.045 594.904 762.543C594.66 762.037 594.537 761.449 594.537 760.778C594.537 760.108 594.66 759.517 594.904 759.006C595.151 758.491 595.495 758.091 595.935 757.804C596.378 757.514 596.895 757.369 597.486 757.369C597.827 757.369 598.164 757.426 598.496 757.54C598.829 757.653 599.131 757.838 599.404 758.094C599.677 758.347 599.894 758.682 600.056 759.099C600.218 759.517 600.299 760.031 600.299 760.642V761.068H595.253V760.199H599.276C599.276 759.83 599.202 759.5 599.055 759.21C598.91 758.92 598.702 758.692 598.432 758.524C598.165 758.357 597.85 758.273 597.486 758.273C597.086 758.273 596.739 758.372 596.447 758.571C596.157 758.767 595.934 759.023 595.778 759.338C595.621 759.653 595.543 759.991 595.543 760.352V760.932C595.543 761.426 595.628 761.845 595.799 762.189C595.972 762.53 596.212 762.79 596.519 762.969C596.826 763.145 597.182 763.233 597.589 763.233C597.853 763.233 598.091 763.196 598.305 763.122C598.52 763.045 598.706 762.932 598.863 762.781C599.019 762.628 599.14 762.437 599.225 762.21L600.197 762.483C600.094 762.812 599.922 763.102 599.681 763.352C599.439 763.599 599.141 763.793 598.786 763.932C598.431 764.068 598.032 764.136 597.589 764.136ZM606.465 758.92L605.562 759.176C605.505 759.026 605.421 758.879 605.31 758.737C605.202 758.592 605.055 758.473 604.867 758.379C604.68 758.286 604.439 758.239 604.147 758.239C603.746 758.239 603.412 758.331 603.145 758.516C602.881 758.697 602.749 758.929 602.749 759.21C602.749 759.46 602.84 759.658 603.022 759.803C603.204 759.947 603.488 760.068 603.874 760.165L604.846 760.403C605.431 760.545 605.867 760.763 606.154 761.055C606.441 761.345 606.584 761.719 606.584 762.176C606.584 762.551 606.476 762.886 606.26 763.182C606.047 763.477 605.749 763.71 605.366 763.881C604.982 764.051 604.536 764.136 604.028 764.136C603.36 764.136 602.807 763.991 602.37 763.702C601.932 763.412 601.655 762.989 601.539 762.432L602.493 762.193C602.584 762.545 602.756 762.81 603.009 762.986C603.265 763.162 603.599 763.25 604.01 763.25C604.479 763.25 604.851 763.151 605.127 762.952C605.405 762.75 605.545 762.509 605.545 762.227C605.545 762 605.465 761.81 605.306 761.656C605.147 761.5 604.903 761.384 604.573 761.307L603.482 761.051C602.883 760.909 602.442 760.689 602.161 760.391C601.883 760.089 601.743 759.713 601.743 759.261C601.743 758.892 601.847 758.565 602.055 758.281C602.265 757.997 602.55 757.774 602.911 757.612C603.275 757.45 603.687 757.369 604.147 757.369C604.795 757.369 605.303 757.511 605.672 757.795C606.045 758.08 606.309 758.455 606.465 758.92ZM610.945 757.455V758.307H607.553V757.455H610.945ZM608.541 755.886H609.547V762.125C609.547 762.409 609.588 762.622 609.671 762.764C609.756 762.903 609.864 762.997 609.994 763.045C610.128 763.091 610.269 763.114 610.416 763.114C610.527 763.114 610.618 763.108 610.689 763.097C610.76 763.082 610.817 763.071 610.86 763.062L611.064 763.966C610.996 763.991 610.901 764.017 610.779 764.043C610.656 764.071 610.502 764.085 610.314 764.085C610.03 764.085 609.752 764.024 609.479 763.902C609.209 763.78 608.985 763.594 608.806 763.344C608.629 763.094 608.541 762.778 608.541 762.398V755.886ZM616.977 758.92L616.073 759.176C616.017 759.026 615.933 758.879 615.822 758.737C615.714 758.592 615.566 758.473 615.379 758.379C615.191 758.286 614.951 758.239 614.659 758.239C614.258 758.239 613.924 758.331 613.657 758.516C613.393 758.697 613.261 758.929 613.261 759.21C613.261 759.46 613.352 759.658 613.534 759.803C613.715 759.947 613.999 760.068 614.386 760.165L615.357 760.403C615.943 760.545 616.379 760.763 616.666 761.055C616.953 761.345 617.096 761.719 617.096 762.176C617.096 762.551 616.988 762.886 616.772 763.182C616.559 763.477 616.261 763.71 615.877 763.881C615.494 764.051 615.048 764.136 614.539 764.136C613.872 764.136 613.319 763.991 612.882 763.702C612.444 763.412 612.167 762.989 612.051 762.432L613.005 762.193C613.096 762.545 613.268 762.81 613.521 762.986C613.776 763.162 614.11 763.25 614.522 763.25C614.991 763.25 615.363 763.151 615.639 762.952C615.917 762.75 616.056 762.509 616.056 762.227C616.056 762 615.977 761.81 615.818 761.656C615.659 761.5 615.414 761.384 615.085 761.307L613.994 761.051C613.394 760.909 612.954 760.689 612.673 760.391C612.394 760.089 612.255 759.713 612.255 759.261C612.255 758.892 612.359 758.565 612.566 758.281C612.776 757.997 613.062 757.774 613.423 757.612C613.786 757.45 614.198 757.369 614.659 757.369C615.306 757.369 615.815 757.511 616.184 757.795C616.556 758.08 616.82 758.455 616.977 758.92ZM622.991 755.273V764H621.985V755.273H622.991ZM627.577 764.136C626.946 764.136 626.402 763.997 625.945 763.719C625.49 763.438 625.139 763.045 624.892 762.543C624.648 762.037 624.526 761.449 624.526 760.778C624.526 760.108 624.648 759.517 624.892 759.006C625.139 758.491 625.483 758.091 625.923 757.804C626.367 757.514 626.884 757.369 627.475 757.369C627.816 757.369 628.152 757.426 628.485 757.54C628.817 757.653 629.119 757.838 629.392 758.094C629.665 758.347 629.882 758.682 630.044 759.099C630.206 759.517 630.287 760.031 630.287 760.642V761.068H625.242V760.199H629.264C629.264 759.83 629.191 759.5 629.043 759.21C628.898 758.92 628.691 758.692 628.421 758.524C628.154 758.357 627.838 758.273 627.475 758.273C627.074 758.273 626.727 758.372 626.435 758.571C626.145 758.767 625.922 759.023 625.766 759.338C625.61 759.653 625.531 759.991 625.531 760.352V760.932C625.531 761.426 625.617 761.845 625.787 762.189C625.96 762.53 626.2 762.79 626.507 762.969C626.814 763.145 627.171 763.233 627.577 763.233C627.841 763.233 628.08 763.196 628.293 763.122C628.509 763.045 628.695 762.932 628.851 762.781C629.007 762.628 629.128 762.437 629.213 762.21L630.185 762.483C630.083 762.812 629.911 763.102 629.669 763.352C629.428 763.599 629.129 763.793 628.774 763.932C628.419 764.068 628.02 764.136 627.577 764.136ZM634.732 757.455V758.307H631.203V757.455H634.732ZM632.26 764V756.551C632.26 756.176 632.348 755.864 632.524 755.614C632.7 755.364 632.929 755.176 633.21 755.051C633.492 754.926 633.789 754.864 634.101 754.864C634.348 754.864 634.55 754.884 634.706 754.923C634.862 754.963 634.979 755 635.056 755.034L634.766 755.903C634.715 755.886 634.644 755.865 634.553 755.839C634.465 755.814 634.348 755.801 634.203 755.801C633.871 755.801 633.631 755.885 633.483 756.053C633.338 756.22 633.266 756.466 633.266 756.79V764H632.26ZM638.988 757.455V758.307H635.596V757.455H638.988ZM636.584 755.886H637.59V762.125C637.59 762.409 637.631 762.622 637.714 762.764C637.799 762.903 637.907 762.997 638.037 763.045C638.171 763.091 638.312 763.114 638.459 763.114C638.57 763.114 638.661 763.108 638.732 763.097C638.803 763.082 638.86 763.071 638.903 763.062L639.107 763.966C639.039 763.991 638.944 764.017 638.822 764.043C638.699 764.071 638.545 764.085 638.357 764.085C638.073 764.085 637.795 764.024 637.522 763.902C637.252 763.78 637.028 763.594 636.849 763.344C636.672 763.094 636.584 762.778 636.584 762.398V755.886Z" fill="#3E1C00" fill-opacity="0.4"/>
</g>
</g>
</g>
<defs>
<filter id="filter0_dd_84_764" x="2" y="3" width="1192" height="806" filterUnits="userSpaceOnUse" color-interpolation-filters="sRGB">
<feFlood flood-opacity="0" result="BackgroundImageFix"/>
<feColorMatrix in="SourceAlpha" type="matrix" values="0 0 0 0 0 0 0 0 0 0 0 0 0 0 0 0 0 0 127 0" result="hardAlpha"/>
<feMorphology radius="1" operator="dilate" in="SourceAlpha" result="effect1_dropShadow_84_764"/>
<feOffset/>
<feColorMatrix type="matrix" values="0 0 0 0 0.905882 0 0 0 0 0.901961 0 0 0 0 0.894118 0 0 0 1 0"/>
<feBlend mode="normal" in2="BackgroundImageFix" result="effect1_dropShadow_84_764"/>
<feColorMatrix in="SourceAlpha" type="matrix" values="0 0 0 0 0 0 0 0 0 0 0 0 0 0 0 0 0 0 127 0" result="hardAlpha"/>
<feOffset dy="1"/>
<feGaussianBlur stdDeviation="1"/>
<feColorMatrix type="matrix" values="0 0 0 0 0 0 0 0 0 0 0 0 0 0 0 0 0 0 0.06 0"/>
<feBlend mode="normal" in2="effect1_dropShadow_84_764" result="effect2_dropShadow_84_764"/>
<feBlend mode="normal" in="SourceGraphic" in2="effect2_dropShadow_84_764" result="shape"/>
</filter>
<filter id="filter1_dd_84_764" x="1064" y="11" width="123" height="30.5" filterUnits="userSpaceOnUse" color-interpolation-filters="sRGB">
<feFlood flood-opacity="0" result="BackgroundImageFix"/>
<feColorMatrix in="SourceAlpha" type="matrix" values="0 0 0 0 0 0 0 0 0 0 0 0 0 0 0 0 0 0 127 0" result="hardAlpha"/>
<feMorphology radius="1" operator="dilate" in="SourceAlpha" result="effect1_dropShadow_84_764"/>
<feOffset/>
<feComposite in2="hardAlpha" operator="out"/>
<feColorMatrix type="matrix" values="0 0 0 0 0.898039 0 0 0 0 0.898039 0 0 0 0 0.905882 0 0 0 1 0"/>
<feBlend mode="normal" in2="BackgroundImageFix" result="effect1_dropShadow_84_764"/>
<feColorMatrix in="SourceAlpha" type="matrix" values="0 0 0 0 0 0 0 0 0 0 0 0 0 0 0 0 0 0 127 0" result="hardAlpha"/>
<feMorphology radius="0.5" operator="erode" in="SourceAlpha" result="effect2_dropShadow_84_764"/>
<feOffset dy="1"/>
<feGaussianBlur stdDeviation="0.5"/>
<feComposite in2="hardAlpha" operator="out"/>
<feColorMatrix type="matrix" values="0 0 0 0 0 0 0 0 0 0 0 0 0 0 0 0 0 0 0.05 0"/>
<feBlend mode="normal" in2="effect1_dropShadow_84_764" result="effect2_dropShadow_84_764"/>
<feBlend mode="normal" in="SourceGraphic" in2="effect2_dropShadow_84_764" result="shape"/>
</filter>
<filter id="filter2_dd_84_764" x="393" y="701" width="410" height="88" filterUnits="userSpaceOnUse" color-interpolation-filters="sRGB">
<feFlood flood-opacity="0" result="BackgroundImageFix"/>
<feColorMatrix in="SourceAlpha" type="matrix" values="0 0 0 0 0 0 0 0 0 0 0 0 0 0 0 0 0 0 127 0" result="hardAlpha"/>
<feMorphology radius="1" operator="dilate" in="SourceAlpha" result="effect1_dropShadow_84_764"/>
<feOffset/>
<feColorMatrix type="matrix" values="0 0 0 0 0.905882 0 0 0 0 0.901961 0 0 0 0 0.894118 0 0 0 1 0"/>
<feBlend mode="normal" in2="BackgroundImageFix" result="effect1_dropShadow_84_764"/>
<feColorMatrix in="SourceAlpha" type="matrix" values="0 0 0 0 0 0 0 0 0 0 0 0 0 0 0 0 0 0 127 0" result="hardAlpha"/>
<feOffset dy="1"/>
<feGaussianBlur stdDeviation="1"/>
<feColorMatrix type="matrix" values="0 0 0 0 0 0 0 0 0 0 0 0 0 0 0 0 0 0 0.06 0"/>
<feBlend mode="normal" in2="effect1_dropShadow_84_764" result="effect2_dropShadow_84_764"/>
<feBlend mode="normal" in="SourceGraphic" in2="effect2_dropShadow_84_764" result="shape"/>
</filter>
<clipPath id="clip0_84_764">
<rect x="4" y="4" width="1188" height="802" rx="8" fill="white"/>
</clipPath>
<clipPath id="clip1_84_764">
<rect width="127" height="112" fill="white" transform="translate(534.5 345)"/>
</clipPath>
</defs>
</svg>
